<svg width="500" height="1000" viewBox="0 0 500 1000" fill="none" xmlns="http://www.w3.org/2000/svg">
<g clip-path="url(#clip0_13_355)">
<path d="M500 0H0V1000H500V0Z" fill="#6ED2B7"/>
<path d="M376 1252C567.091 1252 722 1097.09 722 906C722 714.909 567.091 560 376 560C184.909 560 30 714.909 30 906C30 1097.09 184.909 1252 376 1252Z" fill="#FFC6D7"/>
<path d="M43.2891 -46.6792C75.44 -84.0099 135.946 -72.5373 152.2 -26.0285L205.343 126.034C221.596 172.542 181.408 219.206 133.003 210.028L-25.2578 180.019C-73.6626 170.841 -93.98 112.705 -61.8291 75.3747L43.2891 -46.6792Z" fill="#8A0C89" fill-opacity="0.7"/>
</g>
<defs>
<clipPath id="clip0_13_355">
<rect width="500" height="1000" fill="white"/>
</clipPath>
</defs>
</svg>
