<svg width="500" height="1000" viewBox="0 0 500 1000" fill="none" xmlns="http://www.w3.org/2000/svg">
<g clip-path="url(#clip0_13_360)">
<path d="M969.972 861.407L360.324 160.504C349.995 148.628 331.993 147.374 320.117 157.704L21.5037 417.438C9.62756 427.768 8.37405 445.77 18.704 457.646L628.351 1158.55C638.681 1170.43 656.683 1171.68 668.559 1161.35L967.172 901.615C979.048 891.285 980.301 873.283 969.972 861.407Z" fill="#F7F7FF" stroke="#E8E8EB"/>
<path d="M439.672 634.815L438.719 633.718L440.309 630.761L437.191 627.177L434.089 628.395L433.129 627.293L444.402 623.183L445.296 624.209L439.672 634.815ZM440.917 629.663L443.366 625.204C443.446 625.058 443.596 624.851 443.818 624.582L443.797 624.558C443.523 624.728 443.295 624.846 443.113 624.915L438.368 626.733L440.917 629.663ZM445.128 641.087L444.286 640.12L445.312 639.228L445.292 639.204C444.125 639.433 443.133 639.08 442.319 638.145C441.66 637.386 441.401 636.545 441.543 635.621C441.692 634.697 442.232 633.83 443.164 633.02C444.162 632.152 445.18 631.708 446.219 631.688C447.258 631.668 448.142 632.076 448.87 632.913C449.592 633.743 449.789 634.63 449.465 635.574L449.486 635.598L453.223 632.347L454.064 633.314L445.128 641.087ZM447.016 637.746L447.906 636.972C448.393 636.548 448.665 636.028 448.723 635.412C448.781 634.796 448.594 634.24 448.164 633.745C447.651 633.155 447.031 632.88 446.305 632.918C445.579 632.956 444.836 633.306 444.073 633.969C443.378 634.574 442.967 635.214 442.842 635.888C442.725 636.563 442.904 637.174 443.379 637.72C443.847 638.258 444.422 638.525 445.102 638.521C445.785 638.521 446.423 638.262 447.016 637.746ZM451.31 648.196L450.47 647.229L451.495 646.337L451.475 646.313C450.307 646.542 449.317 646.189 448.504 645.254C447.844 644.495 447.585 643.654 447.727 642.73C447.876 641.806 448.417 640.939 449.348 640.129C450.346 639.261 451.364 638.817 452.402 638.797C453.441 638.777 454.325 639.185 455.053 640.022C455.774 640.852 455.972 641.739 455.648 642.683L455.669 642.707L459.406 639.456L460.247 640.423L451.31 648.196ZM453.199 644.855L454.09 644.081C454.577 643.657 454.849 643.137 454.906 642.521C454.964 641.905 454.779 641.349 454.348 640.854C453.835 640.264 453.215 639.989 452.488 640.027C451.762 640.065 451.019 640.415 450.257 641.078C449.561 641.683 449.15 642.323 449.025 642.997C448.908 643.672 449.088 644.283 449.562 644.829C450.032 645.367 450.605 645.634 451.284 645.63C451.967 645.63 452.605 645.371 453.199 644.855ZM458.389 656.214C458.065 656.096 457.74 655.85 457.415 655.476C456.496 654.419 456.626 653.378 457.805 652.353L461.378 649.246L460.474 648.208L461.301 647.49L462.202 648.528L463.676 647.246L464.829 647.941L463.043 649.494L464.366 651.015L463.54 651.733L462.219 650.212L458.816 653.171C458.412 653.523 458.183 653.843 458.129 654.131C458.076 654.419 458.188 654.722 458.465 655.04C458.677 655.284 458.927 655.436 459.215 655.496L458.389 656.214ZM463.811 662.567L462.97 661.6L466.448 658.575C467.705 657.481 467.928 656.467 467.115 655.531C466.704 655.06 466.175 654.822 465.53 654.818C464.888 654.81 464.282 655.054 463.712 655.549L460.293 658.523L459.452 657.556L468.389 649.784L469.23 650.75L465.327 654.145L465.348 654.168C466.514 653.969 467.47 654.297 468.215 655.154C469.398 656.514 469.169 657.906 467.53 659.332L463.811 662.567ZM472.396 666.831L468.689 662.569C468.031 663.169 467.669 663.801 467.605 664.465C467.54 665.128 467.771 665.763 468.297 666.368C468.889 667.048 469.656 667.478 470.6 667.658L469.693 668.448C468.846 668.252 468.043 667.718 467.284 666.846C466.542 665.993 466.232 665.085 466.355 664.123C466.481 663.157 467.041 662.242 468.036 661.377C468.975 660.56 469.97 660.161 471.021 660.178C472.079 660.197 472.952 660.601 473.639 661.391C474.326 662.18 474.602 663.014 474.467 663.89C474.332 664.767 473.812 665.6 472.904 666.39L472.396 666.831ZM472.354 665.128C472.909 664.638 473.225 664.125 473.303 663.588C473.384 663.054 473.22 662.552 472.81 662.08C472.413 661.625 471.914 661.379 471.311 661.345C470.708 661.31 470.111 661.485 469.52 661.868L472.354 665.128ZM475.512 674.258L475.491 674.234L471.842 677.408L471.001 676.441L479.814 668.776L480.655 669.743L479.594 670.666L479.615 670.689C480.831 670.467 481.836 670.814 482.633 671.73C483.31 672.508 483.567 673.351 483.404 674.259C483.245 675.163 482.71 676.01 481.803 676.8C480.793 677.678 479.769 678.137 478.733 678.176C477.701 678.211 476.814 677.802 476.073 676.949C475.393 676.167 475.205 675.27 475.512 674.258ZM477.926 672.117L477.083 672.85C476.584 673.284 476.299 673.814 476.23 674.441C476.168 675.067 476.354 675.631 476.788 676.13C477.297 676.715 477.919 676.978 478.654 676.919C479.393 676.863 480.162 676.488 480.96 675.794C481.632 675.21 482.022 674.597 482.134 673.955C482.245 673.313 482.07 672.726 481.608 672.196C481.119 671.634 480.531 671.353 479.84 671.353C479.154 671.349 478.515 671.604 477.926 672.117ZM483.71 685.444L482.868 684.477L483.811 683.657L483.792 683.633C482.703 683.842 481.802 683.537 481.091 682.72C480.568 682.119 480.318 681.509 480.339 680.89C480.364 680.275 480.638 679.739 481.165 679.281C482.292 678.3 483.526 678.393 484.866 679.561L486.694 681.15C487.72 680.258 487.872 679.397 487.151 678.568C486.518 677.841 485.7 677.4 484.695 677.245L485.686 676.384C486.579 676.649 487.363 677.169 488.036 677.943C489.27 679.361 489.136 680.724 487.635 682.029L483.71 685.444ZM485.922 681.821L484.456 680.54C484.003 680.147 483.596 679.906 483.237 679.818C482.882 679.727 482.503 679.857 482.098 680.21C481.803 680.466 481.651 680.78 481.643 681.153C481.643 681.525 481.795 681.887 482.1 682.236C482.517 682.716 483.028 682.966 483.632 682.985C484.244 683.006 484.807 682.792 485.322 682.344L485.922 681.821ZM490.258 691.997C488.042 693.925 486.011 693.828 484.165 691.706C483.515 690.959 483.089 690.184 482.887 689.379L483.854 688.539C484.068 689.547 484.443 690.359 484.98 690.976C486.272 692.462 487.709 692.517 489.288 691.143L489.948 690.569L489.927 690.545C488.757 690.755 487.77 690.399 486.967 689.475C486.314 688.725 486.055 687.887 486.19 686.962C486.331 686.038 486.854 685.183 487.758 684.397C488.784 683.505 489.813 683.041 490.845 683.006C491.881 682.975 492.772 683.388 493.517 684.244C494.224 685.058 494.423 685.945 494.112 686.905L494.133 686.929L494.97 686.201L495.811 687.167L490.258 691.997ZM491.663 689.077L492.553 688.303C493.033 687.886 493.302 687.365 493.361 686.742C493.422 686.122 493.243 685.571 492.822 685.087C492.303 684.49 491.678 684.212 490.948 684.254C490.221 684.292 489.467 684.651 488.685 685.331C488.013 685.915 487.615 686.545 487.491 687.219C487.373 687.894 487.547 688.499 488.012 689.033C488.484 689.575 489.058 689.848 489.737 689.851C490.42 689.858 491.062 689.6 491.663 689.077ZM498.473 696.811L494.766 692.549C494.108 693.149 493.746 693.781 493.681 694.445C493.617 695.109 493.848 695.743 494.374 696.348C494.965 697.028 495.733 697.458 496.677 697.638L495.77 698.428C494.923 698.232 494.119 697.698 493.361 696.826C492.619 695.973 492.309 695.066 492.432 694.103C492.558 693.137 493.118 692.222 494.112 691.357C495.052 690.54 496.047 690.141 497.098 690.159C498.156 690.177 499.029 690.581 499.716 691.371C500.403 692.161 500.679 692.994 500.544 693.871C500.409 694.747 499.888 695.58 498.98 696.37L498.473 696.811ZM498.431 695.108C498.986 694.619 499.302 694.105 499.38 693.568C499.461 693.035 499.297 692.532 498.887 692.061C498.49 691.605 497.99 691.36 497.387 691.325C496.784 691.29 496.187 691.465 495.596 691.848L498.431 695.108ZM496.874 700.138L497.911 699.236C497.98 700.101 498.29 700.85 498.84 701.483C499.578 702.331 500.231 702.51 500.797 702.018C500.958 701.877 501.06 701.722 501.105 701.552C501.158 701.382 501.173 701.196 501.15 700.996C501.13 700.798 501.08 700.586 501 700.359C500.927 700.133 500.846 699.891 500.753 699.633C500.626 699.274 500.527 698.946 500.456 698.649C500.392 698.353 500.365 698.078 500.379 697.824C500.401 697.571 500.467 697.334 500.578 697.113C500.693 696.895 500.867 696.686 501.098 696.484C501.381 696.238 501.687 696.086 502.016 696.028C502.349 695.966 502.682 695.98 503.016 696.07C503.353 696.156 503.679 696.304 503.992 696.514C504.31 696.728 504.597 696.983 504.853 697.277C505.308 697.8 505.624 698.346 505.802 698.916L504.824 699.767C504.728 699.07 504.429 698.433 503.927 697.855C503.77 697.674 503.606 697.53 503.436 697.422C503.271 697.311 503.104 697.235 502.938 697.194C502.774 697.157 502.613 697.155 502.456 697.188C502.306 697.222 502.168 697.293 502.042 697.403C501.885 697.54 501.777 697.682 501.719 697.829C501.664 697.98 501.644 698.147 501.658 698.328C501.671 698.51 501.711 698.709 501.781 698.924C501.851 699.139 501.934 699.381 502.03 699.65C502.16 700.006 502.262 700.338 502.337 700.646C502.415 700.951 502.451 701.237 502.443 701.506C502.439 701.772 502.383 702.021 502.275 702.253C502.17 702.49 501.996 702.714 501.753 702.926C501.454 703.186 501.136 703.344 500.799 703.402C500.467 703.464 500.133 703.448 499.796 703.354C499.459 703.261 499.131 703.101 498.81 702.876C498.49 702.651 498.192 702.381 497.919 702.066C497.379 701.445 497.031 700.803 496.874 700.138ZM503.547 705.537L499.827 707.117L499.228 706.427L502.728 704.594L503.547 705.537ZM508.327 711.983L508.305 711.96L504.656 715.134L503.815 714.167L512.629 706.502L513.469 707.469L512.409 708.391L512.428 708.415C513.644 708.193 514.65 708.54 515.447 709.456C516.124 710.234 516.38 711.077 516.217 711.985C516.058 712.889 515.524 713.736 514.617 714.526C513.607 715.404 512.583 715.863 511.547 715.901C510.515 715.937 509.628 715.528 508.887 714.675C508.207 713.893 508.02 712.996 508.327 711.983ZM510.741 709.842L509.897 710.576C509.398 711.01 509.113 711.54 509.044 712.166C508.982 712.793 509.169 713.356 509.603 713.855C510.112 714.441 510.734 714.704 511.469 714.644C512.208 714.589 512.975 714.214 513.773 713.52C514.445 712.936 514.836 712.322 514.948 711.68C515.059 711.038 514.884 710.452 514.422 709.922C513.933 709.36 513.345 709.079 512.654 709.079C511.968 709.075 511.33 709.33 510.741 709.842ZM514.818 721.495C514.042 720.603 513.704 719.645 513.801 718.622C513.905 717.599 514.422 716.683 515.353 715.873C516.367 714.991 517.4 714.579 518.452 714.638C519.504 714.696 520.44 715.197 521.26 716.14C522.043 717.04 522.376 717.983 522.259 718.968C522.146 719.957 521.598 720.878 520.616 721.733C519.653 722.57 518.643 722.969 517.587 722.928C516.537 722.889 515.614 722.411 514.818 721.495ZM520.385 716.777C519.845 716.156 519.206 715.85 518.467 715.857C517.732 715.861 516.993 716.186 516.25 716.833C515.535 717.455 515.13 718.128 515.035 718.852C514.94 719.577 515.16 720.245 515.693 720.858C516.236 721.483 516.856 721.787 517.551 721.769C518.25 721.754 518.973 721.423 519.719 720.773C520.474 720.117 520.908 719.442 521.023 718.749C521.141 718.059 520.929 717.402 520.385 716.777ZM518.818 725.368L519.855 724.465C519.924 725.33 520.234 726.079 520.784 726.712C521.523 727.561 522.175 727.739 522.741 727.247C522.902 727.107 523.006 726.951 523.051 726.781C523.103 726.611 523.117 726.426 523.094 726.225C523.075 726.028 523.025 725.816 522.945 725.589C522.872 725.362 522.79 725.12 522.697 724.862C522.571 724.503 522.472 724.175 522.4 723.878C522.336 723.582 522.31 723.307 522.324 723.053C522.345 722.8 522.411 722.563 522.523 722.342C522.638 722.125 522.811 721.915 523.043 721.713C523.326 721.467 523.632 721.315 523.961 721.257C524.293 721.195 524.627 721.209 524.96 721.299C525.297 721.385 525.623 721.533 525.938 721.743C526.255 721.957 526.541 722.212 526.797 722.507C527.252 723.029 527.568 723.575 527.747 724.145L526.768 724.996C526.673 724.299 526.374 723.662 525.871 723.084C525.714 722.904 525.551 722.759 525.382 722.652C525.216 722.54 525.05 722.464 524.883 722.423C524.719 722.386 524.558 722.384 524.4 722.417C524.25 722.451 524.112 722.523 523.987 722.632C523.829 722.769 523.722 722.911 523.663 723.058C523.609 723.209 523.589 723.376 523.602 723.558C523.615 723.739 523.657 723.938 523.727 724.153C523.797 724.369 523.878 724.611 523.974 724.879C524.104 725.236 524.207 725.568 524.281 725.875C524.36 726.18 524.395 726.467 524.388 726.736C524.384 727.001 524.328 727.25 524.219 727.483C524.114 727.719 523.941 727.943 523.697 728.155C523.399 728.415 523.081 728.574 522.745 728.631C522.412 728.693 522.077 728.677 521.74 728.584C521.403 728.49 521.074 728.33 520.754 728.105C520.433 727.88 520.137 727.61 519.863 727.296C519.323 726.675 518.975 726.032 518.818 725.368ZM525.874 733.8C525.55 733.681 525.224 733.435 524.9 733.062C523.98 732.005 524.11 730.964 525.289 729.938L528.861 726.831L527.958 725.794L528.784 725.076L529.686 726.113L531.16 724.832L532.314 725.527L530.527 727.08L531.85 728.601L531.025 729.319L529.702 727.798L526.301 730.756C525.897 731.108 525.667 731.428 525.613 731.716C525.56 732.004 525.672 732.307 525.949 732.626C526.161 732.869 526.41 733.021 526.698 733.082L525.874 733.8ZM526.837 734.587L527.874 733.685C527.943 734.549 528.253 735.298 528.803 735.931C529.541 736.78 530.194 736.958 530.759 736.466C530.921 736.326 531.024 736.171 531.069 736C531.121 735.83 531.136 735.645 531.113 735.444C531.094 735.247 531.045 735.035 530.964 734.808C530.892 734.581 530.808 734.339 530.715 734.082C530.589 733.722 530.49 733.394 530.418 733.097C530.354 732.801 530.33 732.526 530.344 732.273C530.365 732.019 530.43 731.782 530.542 731.561C530.656 731.344 530.831 731.134 531.062 730.933C531.345 730.687 531.651 730.534 531.979 730.476C532.312 730.414 532.645 730.428 532.979 730.518C533.316 730.604 533.642 730.752 533.956 730.963C534.273 731.177 534.56 731.431 534.816 731.726C535.271 732.248 535.588 732.795 535.766 733.365L534.788 734.216C534.692 733.519 534.394 732.881 533.891 732.304C533.734 732.123 533.569 731.979 533.4 731.871C533.234 731.76 533.068 731.683 532.901 731.642C532.737 731.605 532.577 731.603 532.419 731.636C532.269 731.67 532.132 731.742 532.007 731.851C531.849 731.988 531.741 732.13 531.682 732.277C531.628 732.429 531.607 732.595 531.62 732.777C531.633 732.959 531.675 733.157 531.745 733.373C531.814 733.588 531.897 733.83 531.993 734.099C532.123 734.455 532.227 734.787 532.301 735.095C532.38 735.399 532.414 735.686 532.406 735.955C532.403 736.22 532.347 736.469 532.238 736.702C532.133 736.938 531.959 737.162 531.715 737.374C531.416 737.634 531.099 737.793 530.763 737.851C530.43 737.912 530.095 737.896 529.758 737.803C529.421 737.709 529.093 737.55 528.773 737.324C528.452 737.099 528.156 736.829 527.883 736.515C527.343 735.894 526.994 735.251 526.837 734.587ZM536.332 746.229C535.556 745.337 535.217 744.379 535.314 743.356C535.419 742.334 535.936 741.417 536.867 740.607C537.881 739.725 538.914 739.313 539.966 739.372C541.017 739.43 541.954 739.931 542.775 740.874C543.557 741.774 543.89 742.717 543.773 743.702C543.66 744.691 543.112 745.612 542.13 746.467C541.167 747.304 540.157 747.703 539.1 747.662C538.051 747.623 537.128 747.145 536.332 746.229ZM541.9 741.511C541.36 740.89 540.719 740.584 539.98 740.591C539.245 740.595 538.507 740.921 537.764 741.567C537.049 742.189 536.644 742.862 536.549 743.586C536.454 744.311 536.673 744.979 537.207 745.592C537.75 746.217 538.369 746.521 539.065 746.503C539.763 746.488 540.486 746.157 541.233 745.507C541.987 744.851 542.423 744.176 542.538 743.483C542.656 742.793 542.443 742.136 541.9 741.511ZM548.228 749.405C548.211 749.124 548.062 748.824 547.786 748.505C547.427 748.093 546.932 747.916 546.301 747.975C545.672 748.039 545.021 748.363 544.349 748.947L541.272 751.624L540.431 750.657L546.467 745.407L547.309 746.373L546.064 747.455L546.085 747.479C546.629 747.247 547.142 747.17 547.624 747.248C548.11 747.323 548.506 747.535 548.81 747.884C549.029 748.136 549.168 748.352 549.229 748.534L548.228 749.405ZM550.723 762.487L549.882 761.521L550.824 760.7L550.803 760.677C549.714 760.885 548.815 760.581 548.104 759.763C547.581 759.162 547.331 758.552 547.352 757.933C547.376 757.319 547.65 756.782 548.177 756.324C549.305 755.343 550.539 755.436 551.879 756.604L553.706 758.193C554.732 757.301 554.884 756.44 554.163 755.611C553.531 754.884 552.712 754.443 551.708 754.288L552.698 753.427C553.591 753.692 554.375 754.212 555.048 754.986C556.282 756.405 556.149 757.767 554.647 759.073L550.723 762.487ZM552.935 758.865L551.467 757.583C551.015 757.19 550.609 756.949 550.249 756.862C549.894 756.77 549.514 756.901 549.109 757.253C548.814 757.509 548.663 757.824 548.656 758.196C548.656 758.569 548.808 758.93 549.112 759.28C549.529 759.759 550.04 760.009 550.645 760.029C551.256 760.049 551.818 759.836 552.333 759.388L552.935 758.865ZM556.664 769.319L555.823 768.353L559.266 765.358C560.547 764.244 560.78 763.219 559.967 762.284C559.547 761.801 559.016 761.559 558.374 761.558C557.739 761.558 557.144 761.799 556.59 762.281L553.147 765.276L552.306 764.309L558.342 759.059L559.184 760.025L558.181 760.897L558.202 760.921C559.361 760.713 560.316 761.042 561.068 761.907C561.642 762.567 561.867 763.258 561.743 763.98C561.623 764.699 561.16 765.409 560.354 766.11L556.664 769.319ZM568.469 770.701L559.051 774.015C557.371 774.607 556.14 774.455 555.361 773.559C555.142 773.308 554.985 773.075 554.889 772.862L555.755 772.108C555.866 772.378 555.996 772.599 556.147 772.772C556.57 773.259 557.179 773.372 557.973 773.11L559.538 772.598L563.51 765L564.443 766.073L561.219 771.746C561.177 771.817 561.059 771.992 560.866 772.27L560.897 772.305C561.009 772.243 561.192 772.152 561.448 772.034L567.598 769.699L568.469 770.701ZM574.22 774.219C574.07 774.046 574.001 773.847 574.013 773.623C574.025 773.399 574.121 773.208 574.302 773.051C574.483 772.893 574.685 772.824 574.909 772.844C575.137 772.859 575.327 772.954 575.477 773.127C575.631 773.304 575.7 773.506 575.684 773.734C575.675 773.962 575.581 774.155 575.4 774.312C575.227 774.462 575.024 774.528 574.793 774.508C574.565 774.492 574.374 774.396 574.22 774.219ZM567.062 781.274L566.221 780.307L572.258 775.057L573.098 776.024L567.062 781.274ZM571.258 785.979C570.934 785.861 570.61 785.615 570.285 785.242C569.366 784.185 569.497 783.143 570.676 782.118L574.247 779.011L573.344 777.973L574.171 777.255L575.073 778.293L576.547 777.011L577.699 777.706L575.913 779.26L577.236 780.781L576.41 781.498L575.089 779.977L571.686 782.936C571.282 783.288 571.053 783.608 570.999 783.896C570.946 784.184 571.058 784.487 571.335 784.805C571.547 785.049 571.797 785.201 572.085 785.262L571.258 785.979ZM579.318 789.758L575.611 785.496C574.953 786.096 574.592 786.728 574.527 787.392C574.462 788.056 574.693 788.69 575.22 789.295C575.811 789.975 576.578 790.405 577.522 790.585L576.615 791.375C575.769 791.18 574.965 790.646 574.206 789.773C573.464 788.92 573.155 788.013 573.277 787.05C573.403 786.085 573.964 785.169 574.958 784.304C575.897 783.488 576.892 783.088 577.943 783.106C579.001 783.124 579.874 783.528 580.561 784.318C581.248 785.108 581.524 785.941 581.389 786.818C581.254 787.694 580.734 788.528 579.826 789.317L579.318 789.758ZM579.276 788.055C579.831 787.566 580.147 787.053 580.225 786.515C580.307 785.982 580.142 785.479 579.732 785.008C579.336 784.552 578.836 784.307 578.233 784.272C577.63 784.238 577.033 784.412 576.441 784.795L579.276 788.055ZM585.275 802.212L584.434 801.245L587.9 798.23C588.568 797.649 588.96 797.124 589.077 796.656C589.198 796.192 589.048 795.717 588.624 795.229C588.265 794.817 587.769 794.629 587.139 794.666C586.512 794.708 585.936 794.957 585.409 795.415L581.967 798.41L581.126 797.443L584.71 794.325C585.896 793.293 586.093 792.319 585.296 791.404C584.927 790.979 584.443 790.785 583.846 790.821C583.253 790.853 582.673 791.118 582.103 791.613L578.66 794.607L577.819 793.641L583.855 788.391L584.697 789.357L583.741 790.188L583.762 790.211C584.866 790.004 585.774 790.311 586.488 791.132C586.847 791.545 587.044 792.005 587.079 792.514C587.117 793.018 587 793.49 586.725 793.929C587.948 793.652 588.947 793.958 589.719 794.846C590.875 796.174 590.632 797.551 588.993 798.976L585.275 802.212ZM586.763 803.484L587.801 802.581C587.87 803.446 588.179 804.195 588.73 804.828C589.468 805.677 590.12 805.855 590.686 805.363C590.847 805.223 590.95 805.067 590.995 804.897C591.048 804.727 591.062 804.542 591.04 804.341C591.02 804.144 590.971 803.932 590.891 803.705C590.818 803.478 590.734 803.236 590.642 802.979C590.515 802.619 590.416 802.291 590.345 801.994C590.28 801.698 590.256 801.423 590.27 801.17C590.291 800.916 590.358 800.679 590.469 800.458C590.584 800.241 590.756 800.031 590.988 799.83C591.271 799.584 591.577 799.431 591.906 799.373C592.239 799.311 592.572 799.325 592.905 799.415C593.243 799.501 593.569 799.649 593.883 799.859C594.201 800.074 594.487 800.328 594.743 800.623C595.198 801.145 595.515 801.692 595.693 802.261L594.714 803.113C594.619 802.416 594.32 801.778 593.818 801.201C593.66 801.02 593.497 800.876 593.327 800.768C593.161 800.656 592.994 800.58 592.827 800.539C592.664 800.502 592.503 800.5 592.346 800.533C592.196 800.567 592.058 800.639 591.932 800.748C591.775 800.885 591.667 801.027 591.609 801.174C591.554 801.325 591.534 801.492 591.547 801.674C591.561 801.856 591.602 802.054 591.672 802.269C591.742 802.485 591.825 802.727 591.921 802.996C592.051 803.352 592.153 803.684 592.228 803.992C592.306 804.296 592.341 804.583 592.333 804.852C592.329 805.117 592.273 805.366 592.165 805.599C592.06 805.835 591.885 806.059 591.642 806.271C591.343 806.531 591.026 806.69 590.689 806.747C590.356 806.809 590.022 806.793 589.685 806.7C589.348 806.606 589.019 806.447 588.699 806.221C588.379 805.996 588.083 805.726 587.81 805.412C587.269 804.791 586.92 804.148 586.763 803.484ZM596.701 815.229C596.377 815.11 596.052 814.864 595.727 814.491C594.808 813.434 594.937 812.393 596.116 811.367L599.689 808.26L598.785 807.223L599.611 806.505L600.513 807.542L601.987 806.261L603.141 806.955L601.354 808.509L602.677 810.03L601.852 810.748L600.529 809.227L597.128 812.185C596.724 812.537 596.494 812.857 596.44 813.145C596.387 813.433 596.499 813.736 596.776 814.055C596.988 814.298 597.237 814.45 597.525 814.511L596.701 815.229ZM599.816 819.217C599.041 818.325 598.701 817.367 598.798 816.344C598.903 815.321 599.422 814.405 600.353 813.595C601.367 812.713 602.4 812.301 603.451 812.36C604.503 812.418 605.439 812.919 606.26 813.862C607.042 814.762 607.374 815.704 607.258 816.689C607.145 817.678 606.598 818.6 605.615 819.455C604.653 820.292 603.642 820.691 602.585 820.65C601.536 820.61 600.613 820.133 599.816 819.217ZM605.385 814.499C604.845 813.878 604.205 813.571 603.466 813.579C602.731 813.583 601.991 813.908 601.249 814.554C600.533 815.176 600.128 815.85 600.034 816.574C599.939 817.298 600.158 817.967 600.691 818.58C601.235 819.205 601.855 819.508 602.551 819.49C603.249 819.476 603.972 819.145 604.719 818.495C605.473 817.839 605.908 817.164 606.023 816.47C606.141 815.781 605.928 815.124 605.385 814.499ZM611.279 832.109L610.438 831.143L611.464 830.251L611.443 830.227C610.275 830.456 609.285 830.102 608.471 829.167C607.811 828.409 607.554 827.567 607.695 826.643C607.845 825.72 608.384 824.853 609.315 824.043C610.313 823.175 611.333 822.73 612.372 822.71C613.41 822.691 614.293 823.099 615.021 823.936C615.742 824.765 615.942 825.652 615.617 826.597L615.638 826.62L619.375 823.37L620.216 824.337L611.279 832.109ZM613.167 828.769L614.057 827.995C614.544 827.571 614.817 827.051 614.875 826.434C614.932 825.818 614.746 825.263 614.315 824.767C613.802 824.178 613.184 823.902 612.458 823.94C611.731 823.978 610.986 824.329 610.224 824.992C609.528 825.597 609.119 826.237 608.995 826.911C608.878 827.586 609.056 828.196 609.531 828.743C609.999 829.281 610.574 829.548 611.253 829.544C611.936 829.543 612.574 829.285 613.167 828.769ZM620.98 827.978C620.83 827.805 620.761 827.607 620.773 827.382C620.785 827.158 620.882 826.967 621.062 826.81C621.243 826.653 621.445 826.584 621.669 826.603C621.896 826.619 622.087 826.713 622.237 826.886C622.391 827.063 622.459 827.265 622.443 827.493C622.434 827.721 622.34 827.914 622.159 828.071C621.986 828.222 621.784 828.287 621.553 828.267C621.325 828.251 621.134 828.155 620.98 827.978ZM613.823 835.033L612.982 834.066L619.018 828.816L619.859 829.783L613.823 835.033ZM615.424 836.435L616.463 835.533C616.532 836.398 616.84 837.146 617.391 837.779C618.129 838.628 618.781 838.806 619.347 838.314C619.508 838.174 619.611 838.019 619.656 837.848C619.709 837.678 619.723 837.493 619.701 837.292C619.681 837.095 619.632 836.883 619.552 836.656C619.479 836.429 619.395 836.187 619.303 835.93C619.176 835.57 619.077 835.242 619.006 834.946C618.941 834.649 618.916 834.374 618.93 834.121C618.951 833.867 619.019 833.63 619.13 833.409C619.245 833.192 619.417 832.983 619.649 832.781C619.932 832.535 620.239 832.383 620.568 832.324C620.901 832.262 621.233 832.276 621.566 832.366C621.904 832.452 622.23 832.601 622.544 832.811C622.862 833.025 623.148 833.279 623.404 833.574C623.858 834.097 624.176 834.643 624.354 835.213L623.375 836.064C623.28 835.367 622.981 834.729 622.479 834.152C622.321 833.971 622.157 833.827 621.987 833.719C621.821 833.608 621.655 833.531 621.488 833.49C621.325 833.453 621.165 833.451 621.008 833.485C620.858 833.518 620.72 833.59 620.594 833.699C620.437 833.836 620.329 833.978 620.271 834.125C620.216 834.277 620.195 834.443 620.208 834.625C620.222 834.807 620.263 835.005 620.333 835.221C620.403 835.436 620.485 835.678 620.581 835.947C620.711 836.303 620.813 836.635 620.888 836.943C620.966 837.247 621.003 837.534 620.995 837.803C620.991 838.069 620.934 838.318 620.826 838.55C620.721 838.786 620.546 839.01 620.303 839.222C620.004 839.482 619.688 839.641 619.351 839.699C619.018 839.76 618.683 839.744 618.346 839.651C618.009 839.557 617.68 839.398 617.36 839.172C617.04 838.947 616.744 838.677 616.471 838.363C615.93 837.742 615.581 837.099 615.424 836.435ZM623.743 846.439L622.902 845.473L623.846 844.652L623.826 844.629C622.737 844.837 621.836 844.533 621.125 843.715C620.602 843.114 620.351 842.504 620.372 841.885C620.396 841.27 620.672 840.734 621.198 840.276C622.326 839.295 623.561 839.388 624.901 840.556L626.729 842.145C627.754 841.253 627.907 840.392 627.185 839.563C626.553 838.836 625.734 838.395 624.729 838.24L625.719 837.379C626.613 837.644 627.396 838.164 628.07 838.938C629.304 840.357 629.17 841.719 627.669 843.025L623.743 846.439ZM625.956 842.817L624.49 841.535C624.037 841.142 623.63 840.901 623.271 840.813C622.915 840.722 622.535 840.853 622.13 841.205C621.836 841.461 621.685 841.775 621.677 842.148C621.677 842.521 621.829 842.882 622.133 843.232C622.55 843.711 623.061 843.961 623.665 843.981C624.276 844.001 624.839 843.787 625.354 843.34L625.956 842.817ZM627.062 848.492L627.04 848.469L626.169 849.227L625.328 848.261L634.264 840.488L635.104 841.455L631.143 844.9L631.164 844.924C632.379 844.702 633.386 845.049 634.182 845.964C634.856 846.739 635.111 847.58 634.948 848.488C634.792 849.396 634.26 850.245 633.352 851.035C632.342 851.913 631.319 852.372 630.282 852.41C629.25 852.445 628.364 852.037 627.622 851.184C626.928 850.386 626.742 849.489 627.062 848.492ZM629.476 846.351L628.633 847.084C628.134 847.518 627.849 848.049 627.779 848.675C627.717 849.302 627.904 849.865 628.338 850.364C628.848 850.95 629.469 851.213 630.204 851.153C630.942 851.098 631.711 850.723 632.508 850.029C633.18 849.444 633.572 848.831 633.683 848.189C633.794 847.547 633.62 846.961 633.159 846.43C632.67 845.868 632.079 845.587 631.389 845.587C630.702 845.584 630.065 845.838 629.476 846.351ZM632.341 856.325L631.5 855.358L640.438 847.585L641.279 848.552L632.341 856.325ZM641.039 860.718L637.333 856.456C636.674 857.056 636.313 857.688 636.248 858.352C636.183 859.016 636.414 859.65 636.941 860.255C637.532 860.935 638.299 861.365 639.243 861.545L638.336 862.335C637.49 862.14 636.686 861.606 635.927 860.733C635.185 859.88 634.876 858.973 634.998 858.01C635.125 857.045 635.686 856.129 636.68 855.264C637.619 854.448 638.613 854.048 639.664 854.066C640.722 854.084 641.595 854.488 642.282 855.278C642.969 856.068 643.245 856.901 643.11 857.778C642.976 858.654 642.455 859.488 641.547 860.277L641.039 860.718ZM640.997 859.015C641.552 858.526 641.868 858.013 641.946 857.475C642.028 856.942 641.864 856.44 641.453 855.968C641.057 855.512 640.557 855.267 639.954 855.232C639.351 855.198 638.754 855.372 638.162 855.755L640.997 859.015ZM644.917 870.662C644.593 870.544 644.267 870.298 643.943 869.924C643.023 868.867 643.154 867.826 644.333 866.801L647.904 863.694L647.001 862.656L647.828 861.938L648.729 862.976L650.203 861.694L651.357 862.389L649.57 863.943L650.893 865.463L650.068 866.181L648.745 864.66L645.344 867.619C644.939 867.971 644.71 868.291 644.656 868.579C644.603 868.867 644.715 869.17 644.992 869.488C645.204 869.732 645.454 869.884 645.742 869.944L644.917 870.662ZM650.339 877.015L649.497 876.048L652.976 873.023C654.233 871.929 654.454 870.915 653.641 869.98C653.23 869.508 652.703 869.27 652.057 869.266C651.415 869.258 650.81 869.502 650.24 869.997L646.82 872.971L645.98 872.004L654.917 864.232L655.758 865.198L651.854 868.593L651.875 868.616C653.041 868.417 653.997 868.745 654.742 869.602C655.925 870.962 655.696 872.354 654.057 873.78L650.339 877.015ZM658.924 881.279L655.216 877.017C654.558 877.617 654.197 878.249 654.133 878.913C654.068 879.576 654.299 880.211 654.825 880.816C655.417 881.496 656.184 881.926 657.128 882.106L656.219 882.896C655.372 882.7 654.571 882.166 653.812 881.294C653.07 880.441 652.76 879.533 652.883 878.571C653.009 877.605 653.568 876.69 654.563 875.825C655.502 875.008 656.498 874.609 657.549 874.626C658.607 874.645 659.48 875.049 660.167 875.839C660.854 876.629 661.13 877.462 660.995 878.338C660.86 879.215 660.338 880.048 659.43 880.838L658.924 881.279ZM658.881 879.576C659.436 879.086 659.753 878.573 659.831 878.036C659.913 877.503 659.748 877 659.338 876.529C658.941 876.073 658.442 875.827 657.839 875.793C657.236 875.758 656.638 875.933 656.047 876.316L658.881 879.576ZM416.6 644.859L415.759 643.893L424.697 636.12L425.538 637.087L416.6 644.859ZM420.355 649.462C419.58 648.57 419.24 647.613 419.337 646.59C419.442 645.567 419.96 644.65 420.891 643.84C421.905 642.958 422.939 642.547 423.99 642.605C425.042 642.664 425.977 643.164 426.798 644.108C427.58 645.008 427.913 645.95 427.797 646.935C427.684 647.924 427.137 648.846 426.154 649.7C425.192 650.538 424.181 650.936 423.124 650.896C422.075 650.856 421.152 650.378 420.355 649.462ZM425.923 644.744C425.383 644.124 424.743 643.817 424.004 643.824C423.269 643.829 422.53 644.154 421.788 644.8C421.072 645.422 420.667 646.095 420.573 646.82C420.478 647.544 420.697 648.213 421.23 648.826C421.774 649.45 422.394 649.754 423.09 649.736C423.788 649.722 424.511 649.39 425.258 648.741C426.012 648.084 426.446 647.409 426.561 646.716C426.679 646.026 426.466 645.369 425.923 644.744ZM428.214 658.211L427.372 657.244L428.316 656.424L428.296 656.4C427.207 656.609 426.306 656.304 425.595 655.487C425.072 654.886 424.821 654.276 424.842 653.657C424.867 653.042 425.142 652.506 425.669 652.048C426.797 651.067 428.031 651.16 429.371 652.327L431.198 653.917C432.224 653.024 432.376 652.164 431.655 651.335C431.022 650.608 430.205 650.167 429.201 650.012L430.19 649.15C431.083 649.416 431.867 649.935 432.54 650.71C433.774 652.128 433.64 653.49 432.139 654.796L428.214 658.211ZM430.426 654.588L428.96 653.307C428.508 652.913 428.101 652.673 427.741 652.585C427.386 652.494 427.007 652.624 426.602 652.976C426.307 653.233 426.155 653.547 426.148 653.919C426.147 654.292 426.299 654.654 426.604 655.003C427.021 655.483 427.531 655.732 428.135 655.752C428.747 655.773 429.311 655.559 429.826 655.111L430.426 654.588ZM434.279 665.184L433.439 664.218L434.465 663.325L434.443 663.302C433.275 663.531 432.285 663.177 431.471 662.242C430.811 661.484 430.553 660.642 430.694 659.718C430.844 658.795 431.384 657.928 432.315 657.118C433.313 656.249 434.332 655.805 435.371 655.785C436.409 655.765 437.293 656.174 438.021 657.011C438.742 657.84 438.941 658.727 438.617 659.672L438.637 659.695L442.374 656.445L443.215 657.411L434.279 665.184ZM436.167 661.844L437.057 661.069C437.545 660.646 437.817 660.126 437.875 659.509C437.932 658.893 437.746 658.338 437.315 657.842C436.802 657.253 436.183 656.977 435.457 657.015C434.731 657.053 433.986 657.404 433.224 658.067C432.528 658.672 432.119 659.312 431.995 659.986C431.878 660.661 432.056 661.271 432.531 661.818C432.999 662.356 433.574 662.623 434.254 662.619C434.937 662.618 435.574 662.36 436.167 661.844ZM443.98 661.053C443.83 660.88 443.761 660.682 443.773 660.457C443.785 660.233 443.882 660.042 444.062 659.885C444.243 659.728 444.445 659.659 444.669 659.678C444.897 659.694 445.086 659.788 445.236 659.961C445.39 660.138 445.459 660.34 445.443 660.568C445.434 660.796 445.34 660.989 445.159 661.146C444.986 661.297 444.784 661.362 444.553 661.342C444.325 661.326 444.134 661.23 443.98 661.053ZM436.823 668.108L435.982 667.141L442.017 661.891L442.858 662.858L436.823 668.108ZM442.883 675.076L442.042 674.109L445.484 671.115C446.765 670 446.999 668.975 446.185 668.04C445.765 667.557 445.233 667.315 444.591 667.314C443.956 667.315 443.362 667.556 442.807 668.038L439.366 671.032L438.525 670.065L444.56 664.815L445.401 665.782L444.4 666.653L444.421 666.677C445.579 666.47 446.534 666.798 447.286 667.663C447.86 668.323 448.085 669.014 447.961 669.736C447.841 670.455 447.379 671.165 446.573 671.866L442.883 675.076ZM449.436 681.634C447.22 683.562 445.19 683.465 443.344 681.343C442.694 680.596 442.267 679.821 442.065 679.017L443.033 678.176C443.247 679.184 443.622 679.996 444.159 680.613C445.451 682.099 446.886 682.155 448.466 680.78L449.126 680.206L449.105 680.183C447.935 680.393 446.949 680.036 446.146 679.113C445.493 678.362 445.233 677.524 445.368 676.6C445.51 675.676 446.032 674.821 446.936 674.034C447.962 673.142 448.991 672.679 450.023 672.643C451.059 672.612 451.95 673.025 452.695 673.882C453.403 674.695 453.602 675.582 453.292 676.542L453.311 676.566L454.148 675.838L454.99 676.805L449.436 681.634ZM450.841 678.714L451.732 677.94C452.212 677.523 452.479 677.003 452.538 676.379C452.599 675.76 452.42 675.208 451.999 674.725C451.48 674.127 450.855 673.849 450.125 673.891C449.399 673.929 448.645 674.288 447.862 674.968C447.19 675.553 446.792 676.182 446.668 676.856C446.551 677.531 446.724 678.136 447.189 678.67C447.661 679.213 448.237 679.485 448.917 679.488C449.599 679.495 450.24 679.237 450.841 678.714ZM455.59 689.971C454.815 689.079 454.475 688.121 454.572 687.098C454.677 686.075 455.194 685.159 456.125 684.348C457.139 683.467 458.172 683.055 459.223 683.113C460.275 683.172 461.212 683.673 462.033 684.616C462.815 685.516 463.147 686.458 463.031 687.443C462.918 688.432 462.37 689.354 461.387 690.208C460.425 691.046 459.415 691.444 458.358 691.404C457.309 691.364 456.387 690.886 455.59 689.971ZM461.158 685.253C460.618 684.632 459.977 684.325 459.238 684.333C458.503 684.337 457.764 684.662 457.022 685.308C456.306 685.93 455.901 686.603 455.807 687.328C455.712 688.052 455.932 688.721 456.465 689.334C457.009 689.959 457.627 690.262 458.323 690.244C459.021 690.23 459.744 689.898 460.491 689.249C461.245 688.592 461.681 687.918 461.796 687.224C461.914 686.535 461.701 685.877 461.158 685.253ZM470.371 690.346C470.313 690.066 470.18 689.805 469.971 689.566C469.383 688.89 468.663 688.923 467.81 689.664L466.879 690.474L468.109 691.889L467.284 692.607L466.055 691.192L460.844 695.725L460.008 694.764L465.219 690.231L464.322 689.2L465.146 688.482L466.043 689.514L467.022 688.662C467.654 688.112 468.312 687.861 468.996 687.908C469.683 687.952 470.265 688.248 470.74 688.794C470.997 689.089 471.164 689.353 471.243 689.588L470.371 690.346ZM469.872 706.105L465.975 701.625L474.428 694.273L478.161 698.564L477.266 699.343L474.393 696.042L471.582 698.488L474.238 701.541L473.348 702.316L470.693 699.262L467.732 701.836L470.768 705.326L469.872 706.105ZM472.016 708.569L471.174 707.602L480.111 699.83L480.952 700.796L472.016 708.569ZM480.714 712.962L477.007 708.701C476.349 709.301 475.986 709.933 475.922 710.597C475.857 711.26 476.089 711.895 476.615 712.5C477.207 713.18 477.973 713.61 478.917 713.79L478.009 714.579C477.162 714.384 476.361 713.85 475.602 712.978C474.86 712.125 474.549 711.217 474.672 710.255C474.798 709.289 475.358 708.374 476.353 707.509C477.292 706.692 478.288 706.292 479.339 706.31C480.397 706.328 481.269 706.733 481.956 707.522C482.643 708.312 482.919 709.146 482.784 710.022C482.649 710.899 482.128 711.732 481.22 712.522L480.714 712.962ZM480.672 711.26C481.227 710.77 481.542 710.257 481.62 709.72C481.702 709.186 481.538 708.684 481.128 708.212C480.731 707.756 480.232 707.511 479.629 707.477C479.026 707.442 478.427 707.616 477.836 708L480.672 711.26ZM486.668 725.416L485.828 724.449L489.294 721.435C489.962 720.853 490.355 720.329 490.473 719.861C490.594 719.397 490.441 718.921 490.018 718.434C489.659 718.021 489.164 717.833 488.534 717.871C487.907 717.912 487.331 718.162 486.805 718.62L483.361 721.614L482.521 720.647L486.104 717.53C487.291 716.498 487.486 715.524 486.69 714.608C486.321 714.184 485.838 713.989 485.241 714.025C484.648 714.058 484.067 714.322 483.497 714.818L480.055 717.812L479.214 716.845L485.25 711.595L486.09 712.562L485.137 713.392L485.156 713.416C486.26 713.208 487.168 713.515 487.883 714.337C488.242 714.749 488.439 715.21 488.473 715.718C488.512 716.223 488.394 716.694 488.12 717.133C489.343 716.856 490.341 717.162 491.113 718.05C492.268 719.379 492.027 720.755 490.388 722.181L486.668 725.416ZM495.254 729.68L491.547 725.418C490.889 726.018 490.527 726.65 490.462 727.314C490.398 727.978 490.629 728.612 491.155 729.217C491.746 729.897 492.514 730.327 493.457 730.507L492.551 731.297C491.704 731.101 490.9 730.567 490.142 729.695C489.4 728.842 489.091 727.934 489.214 726.972C489.34 726.006 489.899 725.091 490.893 724.226C491.833 723.409 492.828 723.01 493.879 723.027C494.937 723.046 495.81 723.45 496.497 724.24C497.184 725.03 497.461 725.863 497.326 726.74C497.191 727.616 496.67 728.449 495.762 729.239L495.254 729.68ZM495.212 727.977C495.766 727.487 496.083 726.974 496.161 726.437C496.242 725.904 496.078 725.401 495.668 724.93C495.271 724.474 494.771 724.229 494.168 724.194C493.565 724.159 492.969 724.334 492.378 724.717L495.212 727.977ZM498.112 738.573L497.271 737.606L500.715 734.612C501.996 733.498 502.229 732.473 501.415 731.538C500.995 731.054 500.464 730.812 499.822 730.812C499.187 730.812 498.593 731.053 498.038 731.535L494.595 734.529L493.754 733.562L499.79 728.312L500.632 729.279L499.629 730.151L499.65 730.174C500.808 729.967 501.764 730.296 502.516 731.16C503.09 731.82 503.315 732.512 503.191 733.234C503.071 733.953 502.608 734.663 501.802 735.363L498.112 738.573ZM502.197 743.149C501.873 743.03 501.548 742.784 501.223 742.411C500.303 741.354 500.433 740.313 501.612 739.287L505.185 736.18L504.283 735.143L505.107 734.425L506.01 735.462L507.483 734.181L508.637 734.876L506.85 736.429L508.173 737.95L507.348 738.668L506.025 737.147L502.624 740.105C502.219 740.457 501.99 740.777 501.938 741.065C501.885 741.353 501.995 741.656 502.272 741.975C502.484 742.218 502.734 742.371 503.021 742.431L502.197 743.149ZM505.314 747.137C504.538 746.245 504.199 745.287 504.296 744.264C504.4 743.241 504.917 742.325 505.848 741.515C506.862 740.633 507.896 740.221 508.948 740.28C510 740.338 510.935 740.839 511.755 741.782C512.538 742.682 512.871 743.625 512.754 744.61C512.641 745.598 512.093 746.52 511.111 747.375C510.148 748.212 509.138 748.611 508.082 748.57C507.032 748.531 506.11 748.053 505.314 747.137ZM510.88 742.419C510.34 741.798 509.701 741.492 508.962 741.499C508.227 741.503 507.488 741.828 506.745 742.474C506.03 743.097 505.625 743.77 505.53 744.494C505.435 745.219 505.656 745.887 506.189 746.5C506.732 747.125 507.352 747.429 508.047 747.411C508.746 747.396 509.469 747.065 510.215 746.415C510.97 745.759 511.403 745.084 511.518 744.391C511.636 743.701 511.424 743.044 510.88 742.419ZM517.208 750.313C517.191 750.032 517.044 749.732 516.767 749.413C516.408 749.001 515.913 748.824 515.281 748.883C514.653 748.947 514.003 749.271 513.331 749.855L510.254 752.532L509.413 751.565L515.449 746.315L516.29 747.281L515.047 748.363L515.066 748.387C515.61 748.155 516.123 748.078 516.605 748.156C517.091 748.23 517.486 748.443 517.79 748.792C518.009 749.044 518.149 749.26 518.21 749.442L517.208 750.313ZM517.678 759.306L517.659 759.282L514.009 762.456L513.168 761.489L521.982 753.824L522.823 754.791L521.762 755.714L521.781 755.738C522.996 755.516 524.002 755.863 524.799 756.778C525.475 757.556 525.732 758.399 525.569 759.307C525.41 760.212 524.877 761.059 523.969 761.848C522.959 762.727 521.936 763.185 520.9 763.224C519.867 763.259 518.981 762.85 518.24 761.998C517.559 761.216 517.372 760.318 517.678 759.306ZM520.092 757.165L519.249 757.898C518.75 758.332 518.466 758.863 518.397 759.489C518.335 760.116 518.521 760.679 518.956 761.178C519.465 761.764 520.087 762.027 520.822 761.967C521.561 761.911 522.328 761.537 523.126 760.843C523.798 760.258 524.19 759.645 524.301 759.003C524.413 758.361 524.236 757.775 523.775 757.244C523.286 756.682 522.698 756.401 522.007 756.401C521.321 756.398 520.682 756.652 520.092 757.165ZM525.876 770.493L525.035 769.526L525.978 768.705L525.958 768.682C524.869 768.89 523.969 768.586 523.258 767.768C522.735 767.167 522.484 766.557 522.505 765.938C522.529 765.324 522.805 764.787 523.331 764.329C524.459 763.348 525.694 763.441 527.034 764.609L528.861 766.198C529.886 765.306 530.04 764.446 529.318 763.616C528.686 762.889 527.867 762.448 526.862 762.294L527.853 761.432C528.746 761.697 529.529 762.217 530.203 762.991C531.437 764.41 531.303 765.772 529.802 767.078L525.876 770.493ZM528.09 766.87L526.622 765.588C526.169 765.195 525.763 764.954 525.404 764.867C525.048 764.775 524.668 764.906 524.264 765.258C523.969 765.514 523.818 765.829 523.81 766.201C523.81 766.574 523.962 766.935 524.266 767.285C524.683 767.764 525.194 768.014 525.798 768.034C526.409 768.054 526.972 767.841 527.487 767.393L528.09 766.87ZM532.426 777.046C530.209 778.973 528.177 778.876 526.332 776.754C525.682 776.007 525.257 775.232 525.055 774.428L526.021 773.587C526.236 774.595 526.61 775.408 527.147 776.025C528.439 777.51 529.874 777.566 531.454 776.192L532.115 775.617L532.094 775.594C530.924 775.804 529.937 775.447 529.134 774.524C528.481 773.773 528.223 772.936 528.357 772.011C528.499 771.087 529.022 770.232 529.926 769.445C530.952 768.553 531.98 768.09 533.012 768.055C534.048 768.023 534.939 768.436 535.685 769.293C536.392 770.106 536.59 770.993 536.279 771.953L536.301 771.977L537.137 771.249L537.978 772.216L532.426 777.046ZM533.831 774.125L534.72 773.351C535.199 772.934 535.468 772.414 535.526 771.79C535.588 771.171 535.409 770.619 534.988 770.136C534.469 769.538 533.845 769.261 533.115 769.302C532.388 769.34 531.634 769.699 530.852 770.379C530.18 770.964 529.781 771.593 529.656 772.268C529.539 772.942 529.713 773.547 530.178 774.081C530.65 774.624 531.225 774.896 531.904 774.899C532.587 774.906 533.23 774.648 533.831 774.125ZM540.641 781.859L536.934 777.598C536.275 778.198 535.913 778.83 535.848 779.493C535.784 780.157 536.015 780.792 536.542 781.397C537.133 782.077 537.901 782.507 538.844 782.687L537.936 783.476C537.089 783.281 536.286 782.747 535.527 781.874C534.786 781.022 534.476 780.114 534.598 779.152C534.725 778.186 535.285 777.271 536.279 776.406C537.218 775.589 538.214 775.189 539.264 775.207C540.323 775.225 541.196 775.629 541.883 776.419C542.57 777.209 542.846 778.042 542.711 778.919C542.576 779.796 542.054 780.629 541.147 781.418L540.641 781.859ZM540.598 780.156C541.152 779.667 541.469 779.154 541.547 778.617C541.628 778.083 541.465 777.581 541.055 777.109C540.658 776.653 540.158 776.408 539.555 776.374C538.952 776.339 538.354 776.513 537.762 776.897L540.598 780.156ZM543.755 789.286L543.736 789.263L542.862 790.022L542.021 789.055L550.958 781.282L551.799 782.249L547.837 785.694L547.858 785.718C549.073 785.496 550.079 785.843 550.875 786.759C551.549 787.533 551.804 788.374 551.641 789.282C551.486 790.19 550.955 791.039 550.047 791.829C549.037 792.707 548.014 793.166 546.978 793.204C545.945 793.239 545.057 792.831 544.315 791.978C543.622 791.18 543.435 790.283 543.755 789.286ZM546.169 787.145L545.327 787.878C544.828 788.313 544.543 788.843 544.473 789.469C544.411 790.096 544.597 790.659 545.031 791.158C545.541 791.744 546.163 792.007 546.898 791.947C547.637 791.892 548.405 791.517 549.203 790.823C549.875 790.239 550.267 789.625 550.378 788.983C550.489 788.341 550.314 787.755 549.853 787.224C549.364 786.663 548.773 786.381 548.083 786.381C547.397 786.378 546.759 786.633 546.169 787.145ZM552.44 801.033L551.599 800.066L552.555 799.236L552.534 799.212C551.455 799.447 550.549 799.144 549.818 798.303C548.567 796.865 548.797 795.4 550.51 793.91L554.118 790.772L554.954 791.733L551.499 794.737C550.226 795.845 550.013 796.886 550.861 797.861C551.271 798.332 551.782 798.569 552.391 798.571C553.007 798.573 553.596 798.33 554.158 797.841L557.635 794.816L558.477 795.783L552.44 801.033ZM562.142 796.902C561.991 796.729 561.923 796.53 561.935 796.306C561.947 796.081 562.042 795.891 562.223 795.733C562.404 795.576 562.607 795.507 562.831 795.526C563.059 795.542 563.247 795.637 563.397 795.81C563.551 795.986 563.62 796.189 563.604 796.417C563.596 796.645 563.501 796.838 563.32 796.995C563.147 797.145 562.946 797.211 562.715 797.191C562.487 797.175 562.295 797.079 562.142 796.902ZM554.983 803.957L554.142 802.99L560.178 797.74L561.02 798.706L554.983 803.957ZM557.526 806.88L556.685 805.914L565.622 798.141L566.462 799.108L557.526 806.88ZM563.71 813.989L562.87 813.023L563.895 812.13L563.874 812.107C562.706 812.336 561.715 811.982 560.902 811.047C560.242 810.289 559.983 809.447 560.125 808.523C560.274 807.6 560.815 806.733 561.746 805.923C562.744 805.054 563.763 804.61 564.801 804.59C565.84 804.57 566.724 804.979 567.452 805.816C568.173 806.645 568.371 807.532 568.047 808.477L568.068 808.5L571.805 805.25L572.646 806.217L563.71 813.989ZM565.598 810.649L566.488 809.875C566.975 809.451 567.248 808.931 567.305 808.314C567.363 807.698 567.177 807.143 566.746 806.647C566.233 806.058 565.614 805.782 564.887 805.82C564.161 805.858 563.417 806.209 562.655 806.872C561.959 807.477 561.549 808.117 561.424 808.791C561.307 809.466 561.486 810.076 561.961 810.623C562.43 811.161 563.005 811.428 563.684 811.424C564.367 811.423 565.004 811.165 565.598 810.649ZM572.409 818.383L568.702 814.121C568.043 814.721 567.681 815.353 567.616 816.017C567.552 816.681 567.784 817.315 568.31 817.92C568.901 818.6 569.668 819.03 570.611 819.21L569.704 820C568.857 819.804 568.055 819.27 567.296 818.398C566.555 817.545 566.244 816.637 566.366 815.675C566.493 814.709 567.053 813.794 568.047 812.929C568.987 812.112 569.983 811.713 571.033 811.73C572.092 811.749 572.963 812.153 573.65 812.943C574.337 813.733 574.614 814.566 574.479 815.442C574.344 816.319 573.822 817.152 572.915 817.942L572.409 818.383ZM572.366 816.68C572.92 816.19 573.237 815.677 573.315 815.14C573.396 814.607 573.233 814.104 572.823 813.633C572.426 813.177 571.926 812.932 571.323 812.897C570.72 812.862 570.122 813.037 569.53 813.42L572.366 816.68ZM578.704 821.014C578.686 820.732 578.539 820.432 578.262 820.114C577.903 819.701 577.408 819.525 576.776 819.584C576.148 819.647 575.499 819.971 574.827 820.556L571.749 823.232L570.909 822.265L576.944 817.015L577.785 817.982L576.542 819.064L576.562 819.087C577.107 818.856 577.62 818.779 578.102 818.857C578.588 818.931 578.982 819.143 579.286 819.493C579.505 819.744 579.644 819.961 579.706 820.142L578.704 821.014Z" fill="#1E1E1E"/>
<path d="M381.882 256.129L370.706 260.351L369.758 259.26L375.543 248.843L376.503 249.945L371.835 258.115C371.684 258.378 371.485 258.652 371.236 258.937L371.257 258.961C371.52 258.787 371.829 258.631 372.186 258.494L380.953 255.062L381.882 256.129ZM382.37 258.478C382.22 258.305 382.151 258.106 382.163 257.882C382.175 257.657 382.271 257.466 382.452 257.309C382.633 257.152 382.836 257.083 383.06 257.102C383.287 257.118 383.476 257.213 383.626 257.385C383.78 257.562 383.849 257.765 383.833 257.992C383.824 258.221 383.73 258.413 383.549 258.571C383.376 258.721 383.174 258.786 382.943 258.767C382.715 258.751 382.524 258.654 382.37 258.478ZM375.212 265.532L374.371 264.566L380.408 259.315L381.249 260.282L375.212 265.532ZM381.396 272.641L380.555 271.675L381.581 270.783L381.56 270.759C380.392 270.988 379.402 270.634 378.589 269.699C377.929 268.941 377.669 268.099 377.811 267.175C377.96 266.252 378.5 265.385 379.432 264.575C380.43 263.707 381.448 263.262 382.487 263.242C383.526 263.223 384.409 263.631 385.137 264.468C385.859 265.297 386.057 266.184 385.733 267.129L385.754 267.152L389.491 263.902L390.332 264.869L381.396 272.641ZM383.284 269.301L384.174 268.527C384.661 268.103 384.933 267.583 384.991 266.966C385.049 266.35 384.862 265.795 384.432 265.299C383.919 264.71 383.299 264.434 382.573 264.472C381.847 264.51 381.103 264.861 380.34 265.524C379.645 266.129 379.236 266.769 379.111 267.443C378.994 268.118 379.172 268.728 379.647 269.275C380.115 269.813 380.69 270.08 381.37 270.076C382.053 270.075 382.69 269.817 383.284 269.301ZM390.094 277.035L386.387 272.773C385.728 273.373 385.367 274.005 385.302 274.669C385.237 275.333 385.468 275.967 385.995 276.572C386.586 277.252 387.353 277.682 388.297 277.862L387.389 278.652C386.543 278.456 385.741 277.922 384.982 277.05C384.24 276.197 383.93 275.29 384.052 274.327C384.179 273.361 384.739 272.446 385.733 271.581C386.672 270.764 387.668 270.365 388.719 270.382C389.777 270.401 390.649 270.805 391.336 271.595C392.023 272.385 392.299 273.218 392.164 274.095C392.03 274.971 391.508 275.804 390.6 276.594L390.094 277.035ZM390.052 275.332C390.606 274.843 390.922 274.329 391 273.792C391.082 273.259 390.919 272.756 390.508 272.285C390.112 271.829 389.611 271.584 389.008 271.549C388.405 271.514 387.808 271.689 387.216 272.072L390.052 275.332ZM390.647 283.563C389.871 282.671 389.531 281.714 389.629 280.691C389.733 279.668 390.251 278.751 391.182 277.941C392.196 277.059 393.229 276.648 394.281 276.706C395.332 276.765 396.27 277.265 397.09 278.209C397.873 279.109 398.206 280.051 398.089 281.036C397.976 282.025 397.427 282.947 396.445 283.801C395.482 284.639 394.472 285.037 393.415 284.997C392.366 284.957 391.443 284.479 390.647 283.563ZM396.215 278.845C395.675 278.225 395.035 277.918 394.296 277.925C393.562 277.93 392.822 278.255 392.079 278.901C391.364 279.523 390.96 280.196 390.865 280.921C390.77 281.645 390.989 282.314 391.522 282.927C392.065 283.551 392.685 283.855 393.38 283.837C394.079 283.823 394.801 283.491 395.548 282.842C396.303 282.185 396.738 281.51 396.853 280.817C396.971 280.127 396.758 279.47 396.215 278.845ZM400.122 294.053C399.798 293.934 399.475 293.688 399.15 293.315C398.231 292.258 398.359 291.216 399.538 290.191L403.111 287.084L402.208 286.046L403.034 285.329L403.936 286.366L405.409 285.084L406.564 285.779L404.777 287.333L406.099 288.854L405.275 289.571L403.952 288.051L400.551 291.009C400.146 291.361 399.916 291.681 399.863 291.969C399.81 292.257 399.922 292.56 400.198 292.878C400.41 293.122 400.66 293.274 400.948 293.335L400.122 294.053ZM405.431 300.276L404.591 299.309L405.547 298.478L405.525 298.455C404.445 298.69 403.541 298.387 402.809 297.546C401.558 296.107 401.79 294.643 403.503 293.153L407.111 290.015L407.945 290.976L404.491 293.98C403.218 295.088 403.005 296.129 403.853 297.103C404.263 297.575 404.773 297.812 405.382 297.813C405.999 297.816 406.588 297.572 407.15 297.084L410.628 294.059L411.469 295.025L405.431 300.276ZM409.629 304.981C409.305 304.863 408.98 304.617 408.655 304.244C407.735 303.186 407.865 302.145 409.044 301.12L412.616 298.013L411.715 296.975L412.539 296.257L413.443 297.295L414.915 296.013L416.069 296.708L414.283 298.262L415.605 299.782L414.78 300.5L413.457 298.979L410.056 301.938C409.651 302.29 409.423 302.61 409.37 302.898C409.317 303.186 409.427 303.489 409.704 303.807C409.916 304.051 410.166 304.203 410.453 304.264L409.629 304.981ZM412.745 308.969C411.969 308.077 411.631 307.12 411.728 306.097C411.832 305.074 412.349 304.157 413.28 303.347C414.294 302.465 415.327 302.054 416.379 302.112C417.431 302.171 418.368 302.671 419.188 303.615C419.97 304.515 420.303 305.457 420.186 306.442C420.073 307.431 419.525 308.353 418.543 309.207C417.58 310.045 416.57 310.443 415.514 310.403C414.464 310.363 413.541 309.885 412.745 308.969ZM418.312 304.251C417.772 303.631 417.134 303.324 416.395 303.332C415.66 303.336 414.92 303.661 414.177 304.307C413.462 304.929 413.057 305.602 412.962 306.327C412.867 307.051 413.087 307.72 413.62 308.333C414.163 308.958 414.783 309.261 415.478 309.243C416.177 309.229 416.9 308.897 417.646 308.248C418.401 307.591 418.836 306.916 418.951 306.223C419.069 305.533 418.857 304.876 418.312 304.251ZM424.641 312.146C424.624 311.864 424.476 311.564 424.199 311.246C423.84 310.833 423.346 310.656 422.714 310.716C422.086 310.779 421.434 311.103 420.762 311.687L417.685 314.364L416.845 313.397L422.882 308.147L423.723 309.114L422.478 310.195L422.499 310.219C423.043 309.987 423.556 309.911 424.038 309.988C424.524 310.063 424.919 310.275 425.223 310.625C425.442 310.876 425.581 311.093 425.642 311.274L424.641 312.146ZM428.495 311.506C428.344 311.333 428.276 311.134 428.288 310.91C428.3 310.686 428.396 310.495 428.577 310.338C428.758 310.18 428.96 310.111 429.184 310.131C429.412 310.147 429.6 310.241 429.75 310.414C429.904 310.591 429.973 310.793 429.957 311.021C429.949 311.249 429.854 311.442 429.673 311.599C429.5 311.75 429.299 311.815 429.068 311.795C428.84 311.779 428.648 311.683 428.495 311.506ZM421.336 318.561L420.495 317.594L426.531 312.344L427.372 313.311L421.336 318.561ZM426.797 324.839L425.956 323.872L426.9 323.052L426.879 323.028C425.79 323.236 424.891 322.932 424.18 322.115C423.657 321.513 423.405 320.903 423.426 320.285C423.45 319.67 423.726 319.133 424.253 318.675C425.381 317.694 426.614 317.788 427.954 318.955L429.781 320.544C430.807 319.652 430.959 318.792 430.238 317.962C429.606 317.235 428.788 316.794 427.784 316.64L428.773 315.778C429.666 316.044 430.451 316.563 431.124 317.337C432.358 318.756 432.224 320.118 430.723 321.424L426.797 324.839ZM429.009 321.216L427.542 319.934C427.09 319.541 426.684 319.301 426.324 319.213C425.969 319.122 425.59 319.252 425.185 319.604C424.89 319.86 424.739 320.175 424.732 320.547C424.732 320.92 424.884 321.281 425.188 321.631C425.604 322.11 426.115 322.36 426.719 322.38C427.331 322.4 427.894 322.187 428.409 321.739L429.009 321.216ZM429.223 327.627L428.382 326.66L437.318 318.887L438.159 319.854L429.223 327.627Z" fill="#1E1E1E"/>
<path d="M503.801 397.757L504.331 390.155C504.346 389.938 504.302 389.771 504.15 389.597L499.099 383.788C498.543 383.15 497.565 383.082 496.926 383.637L482.987 395.762C482.348 396.318 482.28 397.295 482.836 397.934L490.92 407.227C491.476 407.866 492.453 407.934 493.092 407.378L503.546 398.285C503.721 398.133 503.786 397.974 503.801 397.757ZM502.757 390.809L502.334 396.891L499.504 393.638L502.757 390.809ZM492.081 406.217L483.998 396.923L497.938 384.799L501.978 389.445L498.495 392.477C497.856 393.032 497.788 394.01 498.343 394.649L501.374 398.133L492.081 406.217Z" fill="#1E1E1E"/>
<path d="M488.493 395.054L494.555 402.024L493.395 403.035L487.331 396.065L488.493 395.054ZM491.978 392.023L498.04 398.993L496.879 400.003L490.816 393.034L491.978 392.023Z" fill="#1E1E1E"/>
<path d="M367.18 240.895C367.421 240.689 367.597 240.42 367.691 240.116C367.785 239.813 367.792 239.489 367.712 239.179C367.642 238.88 367.489 238.606 367.271 238.388C367.054 238.17 366.781 238.017 366.482 237.948L362.136 236.638L364.318 234.739C364.64 234.459 364.836 234.062 364.862 233.633C364.889 233.204 364.745 232.78 364.461 232.454L354.829 221.381C354.261 220.728 353.462 220.324 352.605 220.258C351.749 220.193 350.907 220.47 350.264 221.029L340.563 229.467C339.92 230.026 339.528 230.822 339.475 231.679C339.422 232.536 339.711 233.384 340.278 234.037L349.91 245.111C350.194 245.437 350.594 245.639 351.022 245.672C351.45 245.705 351.871 245.566 352.193 245.286L354.375 243.388L355.039 247.824C355.061 248.141 355.172 248.445 355.359 248.704C355.546 248.962 355.801 249.163 356.095 249.283C356.396 249.408 356.724 249.445 357.042 249.391C357.36 249.336 357.655 249.191 357.892 248.974L367.18 240.895ZM356.719 247.758C356.687 247.721 356.659 247.691 356.652 247.61L355.506 240.243L351.122 244.056L341.491 232.982C341.207 232.656 341.062 232.232 341.089 231.803C341.116 231.375 341.312 230.977 341.633 230.697L351.334 222.26C351.655 221.98 352.077 221.841 352.505 221.874C352.933 221.907 353.333 222.109 353.617 222.435L363.248 233.509L358.866 237.322L366.07 239.483C366.088 239.488 366.105 239.498 366.118 239.512C366.13 239.526 366.138 239.544 366.139 239.563C366.146 239.581 366.147 239.601 366.141 239.619C366.136 239.637 366.125 239.653 366.11 239.664L356.823 247.743C356.81 247.757 356.791 247.765 356.773 247.768C356.754 247.771 356.736 247.767 356.719 247.758Z" fill="#1E1E1E"/>
<g filter="url(#filter0_i_13_360)">
<path d="M374.659 422.219L269.892 301.769C265.284 296.473 257.256 295.914 251.959 300.521L135.995 401.386C130.698 405.993 130.139 414.022 134.746 419.319L239.514 539.769C244.121 545.066 252.15 545.625 257.447 541.018L373.41 440.152C378.707 435.545 379.266 427.516 374.659 422.219Z" fill="#E3E3E8"/>
<path d="M355.759 425.403L262.169 317.804C260.94 316.392 258.799 316.243 257.387 317.471L203.061 364.724C201.648 365.953 201.499 368.094 202.728 369.507L296.317 477.106C297.546 478.518 299.687 478.667 301.1 477.439L355.426 430.185C356.839 428.957 356.988 426.816 355.759 425.403Z" fill="#FEFEFE"/>
<path d="M236.345 424.011L194.32 375.696C193.398 374.636 191.793 374.525 190.733 375.446L185.037 380.401C183.977 381.323 183.865 382.928 184.787 383.988L226.811 432.303C227.733 433.362 229.339 433.474 230.398 432.553L236.095 427.598C237.154 426.676 237.266 425.07 236.345 424.011Z" fill="#FEFEFE"/>
<path d="M253.591 478.946L176.936 390.817C176.014 389.757 174.409 389.646 173.349 390.567L167.652 395.522C166.593 396.443 166.481 398.049 167.403 399.109L244.058 487.238C244.979 488.298 246.585 488.409 247.645 487.488L253.341 482.533C254.401 481.611 254.512 480.006 253.591 478.946Z" fill="#FEFEFE"/>
<path d="M256.498 512.864L161.796 403.986C160.874 402.926 159.268 402.815 158.209 403.736L152.512 408.691C151.453 409.613 151.341 411.218 152.263 412.278L246.965 521.156C247.886 522.215 249.492 522.327 250.551 521.405L256.248 516.45C257.308 515.529 257.419 513.923 256.498 512.864Z" fill="#FEFEFE"/>
<path d="M273.908 362.202C275.437 360.871 277.432 360.201 279.451 360.338C281.471 360.475 283.349 361.408 284.675 362.933L314.673 397.42C315.999 398.944 316.663 400.935 316.519 402.954C316.375 404.973 315.434 406.854 313.905 408.185L285.065 433.27C283.535 434.6 281.542 435.271 279.522 435.134C277.503 434.996 275.624 434.063 274.298 432.539L244.3 398.051C242.974 396.527 242.311 394.536 242.455 392.517C242.599 390.499 243.539 388.617 245.069 387.286L273.908 362.202ZM250.453 387.652L247.569 390.16C246.804 390.826 246.333 391.766 246.261 392.776C246.189 393.785 246.521 394.781 247.184 395.543L277.181 430.03C277.844 430.792 278.783 431.259 279.793 431.328C280.803 431.396 281.8 431.061 282.565 430.396L292.658 421.616L288.832 405.877C288.733 405.49 288.514 405.144 288.207 404.888C287.9 404.632 287.52 404.48 287.121 404.452L267.149 403.096L265.61 391.006C265.554 390.57 265.348 390.167 265.028 389.865C264.709 389.564 264.295 389.382 263.856 389.351L250.453 387.652ZM281.696 385.717C282.844 384.719 283.55 383.307 283.658 381.793C283.766 380.279 283.268 378.786 282.274 377.643C281.279 376.5 279.869 375.8 278.354 375.697C276.84 375.594 275.344 376.097 274.197 377.095C273.05 378.093 272.344 379.504 272.236 381.018C272.128 382.532 272.626 384.025 273.621 385.168C274.615 386.312 276.025 387.012 277.539 387.115C279.054 387.217 280.549 386.715 281.696 385.717Z" fill="#E2E2E2"/>
</g>
<path d="M398.082 559.01L318.236 467.212C314.725 463.175 308.606 462.749 304.569 466.26L216.19 543.133C212.153 546.644 211.727 552.763 215.238 556.8L295.084 648.598C298.595 652.635 304.714 653.061 308.751 649.55L397.131 572.677C401.168 569.166 401.594 563.047 398.082 559.01Z" fill="#E3E3E8"/>
<path d="M323.25 601.578L262.734 532.003C259.223 527.966 253.104 527.54 249.067 531.051L233.342 544.729C229.305 548.24 228.879 554.359 232.39 558.396L292.907 627.971C296.418 632.008 302.537 632.434 306.574 628.922L322.299 615.245C326.336 611.734 326.762 605.615 323.25 601.578Z" fill="#FEFEFE"/>
<g opacity="0.5">
<path d="M350.133 588.466L333.346 569.166C332.644 568.359 331.42 568.274 330.613 568.976L321.57 576.842C320.762 577.544 320.677 578.768 321.379 579.575L338.167 598.875C338.869 599.682 340.093 599.767 340.9 599.065L349.943 591.2C350.75 590.498 350.835 589.274 350.133 588.466Z" fill="#FDFDFD"/>
</g>
<g opacity="0.5">
<path d="M365.519 575.084L348.732 555.784C348.03 554.977 346.806 554.892 345.999 555.594L336.956 563.46C336.148 564.162 336.063 565.386 336.765 566.193L353.553 585.493C354.255 586.3 355.479 586.385 356.286 585.683L365.329 577.818C366.136 577.115 366.221 575.892 365.519 575.084Z" fill="#FDFDFD"/>
</g>
<g opacity="0.5">
<path d="M380.905 561.702L364.118 542.402C363.416 541.595 362.192 541.51 361.385 542.212L352.342 550.078C351.534 550.78 351.449 552.004 352.151 552.811L368.939 572.111C369.641 572.918 370.865 573.003 371.672 572.301L380.715 564.436C381.522 563.734 381.607 562.51 380.905 561.702Z" fill="#FDFDFD"/>
</g>
<path d="M372.92 490.379L288.035 392.787C281.584 385.371 270.344 384.589 262.928 391.039L165.336 475.924C157.921 482.374 157.138 493.615 163.588 501.03L248.474 598.622C254.924 606.038 266.164 606.821 273.58 600.37L371.172 515.485C378.588 509.035 379.37 497.794 372.92 490.379Z" fill="url(#paint0_linear_13_360)"/>
<path d="M279.515 425.623L230.917 467.893L272.557 515.766L321.154 473.495L279.515 425.623ZM278.882 433.818L312.951 472.986L273.189 507.571L239.121 468.403L278.882 433.818ZM277.617 450.207L255.527 469.421L259.313 473.773L281.403 454.559L277.617 450.207ZM285.188 458.911L280.77 462.754L292.126 475.81L296.544 471.968L285.188 458.911ZM276.352 466.597L271.934 470.44L283.29 483.496L287.708 479.653L276.352 466.597ZM267.516 474.282L263.098 478.125L274.454 491.181L278.872 487.339L267.516 474.282Z" fill="white"/>
<path d="M251.905 537.549C262.386 549.599 280.651 550.871 292.701 540.39C304.751 529.909 306.023 511.644 295.542 499.594C285.061 487.544 266.796 486.272 254.746 496.753C242.696 507.234 241.424 525.499 251.905 537.549Z" fill="white" stroke="#9306A3" stroke-width="4"/>
<path d="M288.231 505.954C281.291 497.975 269.085 497.125 261.106 504.065C253.128 511.005 252.278 523.211 259.217 531.19C266.157 539.169 278.364 540.019 286.342 533.079C294.321 526.139 295.171 513.933 288.231 505.954ZM285.007 508.758C287.18 511.257 288.327 514.365 288.639 517.491L259.103 515.434C259.846 512.382 261.412 509.462 263.91 507.289C270.116 501.891 279.61 502.552 285.007 508.758ZM262.441 528.386C260.268 525.888 259.122 522.779 258.809 519.654L288.345 521.71C287.603 524.763 286.037 527.682 283.538 529.855C277.333 535.253 267.839 534.592 262.441 528.386Z" fill="#F12B2B"/>
<mask id="mask0_13_360" style="mask-type:alpha" maskUnits="userSpaceOnUse" x="159" y="457" width="136" height="148">
<path d="M186.631 457.995L294.515 582.028L273.852 600.001C266.436 606.452 255.196 605.669 248.746 598.253L164.22 501.075C157.769 493.659 158.552 482.419 165.968 475.969L186.631 457.995Z" fill="url(#paint1_linear_13_360)"/>
</mask>
<g mask="url(#mask0_13_360)">
<path d="M244.662 544.486C291.891 644.194 357.848 587.46 370.749 597.898L259.972 642.653L120.538 453.052L148.37 430.119C202.913 503.08 223.238 499.258 244.662 544.486Z" fill="#8A0C89"/>
</g>
</g>
<defs>
<filter id="filter0_i_13_360" x="131.626" y="297.4" width="246.154" height="250.128" filterUnits="userSpaceOnUse" color-interpolation-filters="sRGB">
<feFlood flood-opacity="0" result="BackgroundImageFix"/>
<feBlend mode="normal" in="SourceGraphic" in2="BackgroundImageFix" result="shape"/>
<feColorMatrix in="SourceAlpha" type="matrix" values="0 0 0 0 0 0 0 0 0 0 0 0 0 0 0 0 0 0 127 0" result="hardAlpha"/>
<feOffset dy="3.38968"/>
<feGaussianBlur stdDeviation="5.93194"/>
<feComposite in2="hardAlpha" operator="arithmetic" k2="-1" k3="1"/>
<feColorMatrix type="matrix" values="0 0 0 0 0 0 0 0 0 0 0 0 0 0 0 0 0 0 0.05 0"/>
<feBlend mode="normal" in2="shape" result="effect1_innerShadow_13_360"/>
</filter>
<linearGradient id="paint0_linear_13_360" x1="394.143" y1="415.049" x2="156.217" y2="555.113" gradientUnits="userSpaceOnUse">
<stop stop-color="#7400AB"/>
<stop offset="1" stop-color="#B70E9C"/>
</linearGradient>
<linearGradient id="paint1_linear_13_360" x1="268.336" y1="524.61" x2="207.871" y2="572.007" gradientUnits="userSpaceOnUse">
<stop stop-color="#B415FF"/>
<stop offset="1" stop-color="#F05DD9"/>
</linearGradient>
<clipPath id="clip0_13_360">
<rect width="500" height="1000" fill="white"/>
</clipPath>
</defs>
</svg>
