<svg width="1000" height="500" viewBox="0 0 1000 500" fill="none" xmlns="http://www.w3.org/2000/svg">
<g id="skill-bg 1">
<path id="redux" d="M824.645 371.92C826.49 371.718 827.89 370.043 827.826 368.032C827.762 366.021 826.172 364.413 824.263 364.413H824.136C822.163 364.48 820.636 366.223 820.7 368.3C820.763 369.306 821.145 370.177 821.718 370.78C819.555 375.271 816.246 378.555 811.283 381.303C807.911 383.18 804.411 383.85 800.912 383.381C798.049 382.979 795.822 381.638 794.422 379.426C792.386 376.142 792.195 372.59 793.913 369.038C795.122 366.491 797.031 364.614 798.239 363.676C797.985 362.804 797.603 361.33 797.412 360.257C788.186 367.295 789.141 376.812 791.94 381.303C794.04 384.654 798.303 386.732 803.012 386.732C804.284 386.732 805.557 386.598 806.829 386.263C814.973 384.587 821.145 379.493 824.645 371.92ZM835.843 363.609C831.007 357.643 823.881 354.359 815.737 354.359H814.719C814.146 353.153 812.937 352.349 811.601 352.349H811.474C809.501 352.416 807.974 354.158 808.038 356.236C808.102 358.247 809.692 359.855 811.601 359.855H811.728C813.128 359.788 814.337 358.85 814.846 357.576H815.991C820.827 357.576 825.408 359.051 829.544 361.933C832.725 364.145 835.016 367.027 836.288 370.512C837.37 373.327 837.307 376.075 836.161 378.421C834.38 381.973 831.389 383.917 827.444 383.917C824.899 383.917 822.481 383.113 821.209 382.509C820.509 383.18 819.236 384.252 818.346 384.922C821.082 386.263 823.881 387 826.554 387C832.662 387 837.179 383.448 838.897 379.895C840.742 376.008 840.615 369.306 835.843 363.609ZM803.521 373.059C803.584 375.07 805.175 376.678 807.084 376.678H807.211C809.183 376.611 810.71 374.869 810.647 372.791C810.583 370.78 808.992 369.172 807.084 369.172H806.956C806.829 369.172 806.638 369.172 806.511 369.239C803.902 364.681 802.821 359.721 803.202 354.359C803.457 350.338 804.729 346.853 806.956 343.971C808.802 341.491 812.365 340.284 814.783 340.217C821.527 340.083 824.39 348.93 824.581 352.483C825.408 352.684 826.808 353.153 827.762 353.488C826.999 342.63 820.636 337 814.528 337C808.802 337 803.521 341.357 801.421 347.791C798.494 356.37 800.403 364.614 803.966 371.115C803.648 371.584 803.457 372.322 803.521 373.059Z" fill="#764ABC" fill-opacity="0.5"/>
<path id="react" d="M710.84 216.203C710.313 216.002 709.785 215.812 709.258 215.634C709.346 215.221 709.424 214.808 709.502 214.395C710.703 207.744 709.912 202.398 707.246 200.635C704.678 198.95 700.488 200.702 696.25 204.92C695.83 205.333 695.42 205.768 695.029 206.204C694.766 205.913 694.492 205.623 694.219 205.344C689.775 200.836 685.322 198.938 682.656 200.713C680.098 202.409 679.336 207.442 680.41 213.737C680.518 214.362 680.635 214.975 680.771 215.6C680.146 215.801 679.531 216.025 678.955 216.259C673.74 218.324 670 221.582 670 224.953C670 228.435 673.984 231.928 679.404 234.048C679.844 234.216 680.283 234.383 680.732 234.528C680.586 235.198 680.459 235.856 680.342 236.537C679.316 242.731 680.117 247.641 682.676 249.326C685.313 251.067 689.746 249.282 694.062 244.963C694.404 244.617 694.746 244.26 695.088 243.88C695.518 244.36 695.967 244.818 696.416 245.264C700.596 249.371 704.727 251.034 707.275 249.349C709.912 247.608 710.771 242.329 709.658 235.901C709.57 235.41 709.473 234.907 709.365 234.394C709.678 234.294 709.98 234.182 710.283 234.07C715.918 231.939 720 228.49 720 224.953C720 221.571 716.152 218.29 710.84 216.203ZM697.627 206.728C701.26 203.112 704.648 201.695 706.191 202.711C707.842 203.793 708.477 208.168 707.441 213.915C707.373 214.295 707.305 214.663 707.217 215.031C705.049 214.473 702.852 214.072 700.645 213.848C699.375 211.773 697.988 209.786 696.484 207.922C696.865 207.509 697.236 207.119 697.627 206.728ZM686.328 230.745C686.826 231.716 687.334 232.687 687.871 233.635C686.348 233.445 684.834 233.166 683.34 232.798C683.77 231.191 684.307 229.528 684.932 227.832C685.381 228.814 685.84 229.785 686.328 230.745ZM683.369 217.319C684.775 216.962 686.27 216.672 687.822 216.449C687.305 217.375 686.797 218.324 686.318 219.283C685.84 220.232 685.371 221.203 684.932 222.185C684.316 220.522 683.799 218.893 683.369 217.319ZM686.045 225.008C686.689 223.468 687.393 221.962 688.135 220.477C688.877 218.993 689.678 217.553 690.518 216.136C691.982 216.013 693.477 215.946 695 215.946C696.523 215.946 698.027 216.013 699.482 216.136C700.312 217.542 701.104 218.982 701.855 220.455C702.607 221.928 703.311 223.435 703.975 224.964C703.32 226.504 702.617 228.022 701.865 229.517C701.123 231.001 700.332 232.441 699.502 233.87C698.047 233.992 696.533 234.048 695 234.048C693.467 234.048 691.982 233.992 690.547 233.892C689.697 232.475 688.896 231.024 688.145 229.539C687.393 228.055 686.699 226.549 686.045 225.008ZM703.682 230.722C704.18 229.74 704.648 228.747 705.107 227.743C705.732 229.361 706.279 231.001 706.758 232.687C705.244 233.077 703.711 233.379 702.168 233.579C702.695 232.642 703.193 231.682 703.682 230.722ZM705.088 222.185C704.629 221.203 704.16 220.221 703.672 219.261C703.193 218.312 702.695 217.375 702.178 216.449C703.75 216.672 705.254 216.973 706.66 217.341C706.211 218.993 705.684 220.6 705.088 222.185ZM695.02 209.63C696.045 210.902 697.012 212.241 697.91 213.625C695.977 213.525 694.033 213.525 692.1 213.625C693.057 212.185 694.043 210.846 695.02 209.63ZM683.691 202.789C685.332 201.695 688.975 203.257 692.813 207.141C693.057 207.387 693.301 207.654 693.555 207.922C692.041 209.786 690.645 211.773 689.365 213.848C687.158 214.072 684.971 214.462 682.803 215.009C682.676 214.44 682.568 213.859 682.461 213.279C681.543 207.878 682.148 203.804 683.691 202.789ZM681.299 232.207C680.889 232.073 680.488 231.928 680.088 231.771C678.008 231.024 675.645 229.841 673.936 228.29C672.949 227.508 672.285 226.303 672.1 224.953C672.1 222.91 675.186 220.299 679.639 218.524C680.195 218.301 680.762 218.1 681.328 217.911C681.992 220.332 682.793 222.709 683.721 225.008C682.783 227.341 681.973 229.751 681.299 232.207ZM692.686 243.144C691.074 244.829 689.209 246.168 687.178 247.083C686.094 247.675 684.844 247.73 683.73 247.228C682.178 246.201 681.533 242.262 682.412 236.961C682.52 236.336 682.637 235.711 682.773 235.097C684.961 235.633 687.168 236.001 689.404 236.191C690.693 238.278 692.109 240.275 693.623 242.15C693.311 242.496 692.998 242.831 692.686 243.144ZM695.078 240.432C694.082 239.204 693.086 237.843 692.119 236.381C693.057 236.425 694.023 236.448 695 236.448C696.006 236.448 696.992 236.425 697.969 236.369C697.07 237.787 696.104 239.137 695.078 240.432ZM707.842 243.78C707.754 245.141 707.168 246.414 706.23 247.273C704.678 248.3 701.367 246.96 697.793 243.456C697.383 243.054 696.973 242.619 696.553 242.173C698.047 240.287 699.424 238.289 700.674 236.191C702.91 235.979 705.137 235.588 707.334 235.019C707.432 235.477 707.52 235.934 707.598 236.381C708.076 238.791 708.154 241.302 707.842 243.78ZM709.619 231.783C709.346 231.883 709.072 231.984 708.789 232.073C708.105 229.64 707.266 227.263 706.299 224.953C707.236 222.676 708.027 220.332 708.691 217.933C709.199 218.1 709.688 218.279 710.156 218.457C714.707 220.243 717.9 222.899 717.9 224.93C717.9 227.118 714.492 229.941 709.619 231.783ZM695 230.109C697.471 230.109 699.473 227.821 699.473 224.997C699.473 222.174 697.471 219.886 695 219.886C692.529 219.886 690.527 222.174 690.527 224.997C690.527 227.821 692.529 230.109 695 230.109Z" fill="#5ED3F3" fill-opacity="0.5"/>
<path id="boots" d="M612.048 393.128C612.048 391.155 610.66 390.065 608.222 390.065H603.738V396.424H607.52C610.438 396.415 612.048 395.236 612.048 393.128ZM628.374 391.985C627.528 389.226 627.404 385.841 627.502 383.224C627.6 380.501 625.482 378 622.635 378H593.383C590.527 378 588.418 380.509 588.516 383.224C588.605 385.841 588.489 389.226 587.644 391.985C586.79 394.754 585.358 396.504 583 396.727V399.273C585.349 399.496 586.79 401.246 587.644 404.015C588.489 406.774 588.614 410.159 588.516 412.776C588.418 415.499 590.536 418 593.383 418H622.626C625.482 418 627.591 415.491 627.493 412.776C627.404 410.159 627.52 406.774 628.365 404.015C629.219 401.246 630.651 399.496 633 399.273V396.727C630.66 396.504 629.219 394.754 628.374 391.985ZM609.085 408.641H600.375V387.359H609.041C612.893 387.359 615.42 389.449 615.42 392.664C615.42 394.923 613.721 396.942 611.55 397.29V397.406C614.504 397.728 616.488 399.782 616.488 402.613C616.488 406.372 613.703 408.641 609.085 408.641ZM608.196 398.933H603.738V405.935H608.391C611.434 405.935 613.044 404.711 613.044 402.407C613.044 400.112 611.39 398.933 608.196 398.933Z" fill="#7910F2" fill-opacity="0.5"/>
<path id="scss" d="M250.581 123.801C250.558 123.863 250.534 123.913 250.581 123.801V123.801ZM270.045 114.739C268.473 114.738 266.923 115.219 265.513 116.145C265.053 114.906 264.576 113.822 264.498 113.01C264.404 112.062 264.302 111.5 264.412 110.375C264.521 109.25 265.013 107.656 265.006 107.542C264.998 107.427 264.896 106.854 263.888 106.844C262.881 106.833 262.013 107.104 261.913 107.458C261.735 108.105 261.596 108.771 261.499 109.448C261.319 110.666 259.484 115.02 258.445 117.291C258.101 116.405 257.812 115.624 257.749 114.999C257.656 114.051 257.554 113.489 257.663 112.364C257.773 111.239 258.265 109.646 258.257 109.531C258.249 109.416 258.148 108.844 257.141 108.833C256.134 108.823 255.266 109.094 255.164 109.448C255.063 109.802 254.953 110.635 254.75 111.437C254.547 112.239 252.102 119.488 251.463 121.374C251.134 122.332 250.853 123.103 250.65 123.624C250.619 123.707 250.595 123.759 250.58 123.801C250.603 123.749 250.619 123.696 250.619 123.717C250.447 124.165 250.345 124.415 250.345 124.415V124.426C250.212 124.759 250.064 125.061 249.994 125.061C249.947 125.061 249.845 124.186 250.017 122.988C250.384 120.468 251.252 116.551 251.244 116.416C251.236 116.343 251.408 115.666 250.673 115.301C249.962 114.958 249.705 115.53 249.642 115.53C249.58 115.53 249.533 115.739 249.533 115.739C249.533 115.739 250.322 111.322 248.018 111.322C246.58 111.322 244.58 113.426 243.598 115.333C242.98 115.78 241.644 116.749 240.238 117.78C239.699 118.176 239.144 118.582 238.621 118.968C238.582 118.916 238.551 118.864 238.512 118.811C235.715 114.833 230.553 112.02 230.772 106.677C230.85 104.729 231.358 99.6151 240.699 93.4073C248.355 88.3244 254.477 89.7201 255.531 92.824C257.046 97.2507 252.258 105.49 244.307 106.677C241.276 107.125 239.683 105.563 239.285 104.979C238.871 104.365 238.808 104.333 238.652 104.448C238.394 104.636 238.558 105.177 238.652 105.5C238.887 106.323 239.863 107.781 241.526 108.51C242.987 109.146 246.541 109.5 250.837 107.281C255.663 104.802 259.42 97.8965 258.319 92.1157C257.197 86.2412 249.891 84.3143 242.982 87.5848C238.865 89.5326 234.414 92.5949 231.211 96.5841C227.408 101.334 226.799 105.469 227.049 107.198C227.939 113.333 234.281 117.332 236.819 120.291C236.694 120.384 236.577 120.468 236.468 120.551C235.195 121.395 230.36 124.769 229.15 128.332C227.783 132.373 229.376 135.268 230.422 135.664C233.687 136.872 237.03 134.696 238.826 131.123C240.623 127.55 240.405 122.884 239.576 120.759C239.569 120.728 239.553 120.707 239.545 120.676C239.873 120.416 240.209 120.155 240.545 119.895C241.193 119.384 241.826 118.916 242.38 118.509C242.068 119.634 241.841 120.988 241.724 122.947C241.583 125.238 242.294 128.207 243.216 129.373C243.623 129.883 244.114 129.894 244.419 129.894C245.497 129.894 245.981 128.706 246.519 127.29C247.184 125.561 247.769 123.551 247.769 123.551C247.769 123.551 247.035 128.988 249.043 128.988C249.777 128.988 250.511 127.727 250.84 127.082V127.092C250.84 127.092 250.855 127.05 250.895 126.967C250.973 126.811 251.012 126.717 251.012 126.717V126.686C251.309 126.009 251.957 124.457 252.933 121.895C254.198 118.582 255.409 114.447 255.409 114.447C255.526 115.356 255.687 116.254 255.893 117.135C256.112 118.124 256.573 119.207 256.94 120.259C256.643 120.801 256.463 121.113 256.463 121.113C256.464 121.121 256.467 121.129 256.471 121.134C256.237 121.551 255.971 121.999 255.698 122.436C254.698 124.019 253.51 125.832 253.354 126.353C253.166 126.967 253.213 127.425 253.573 127.779C253.838 128.05 254.307 128.092 254.798 128.04C255.697 127.957 256.33 127.665 256.634 127.477C257.196 127.209 257.727 126.837 258.212 126.373C259.188 125.415 259.782 124.04 259.727 122.228C259.696 121.228 259.454 120.228 259.157 119.291C259.243 119.124 259.337 118.947 259.423 118.77C260.969 115.76 262.164 112.456 262.164 112.456C262.281 113.365 262.443 114.262 262.649 115.143C262.836 115.987 263.202 116.914 263.538 117.82C262.086 119.393 261.188 121.215 260.875 122.413C260.297 124.632 260.75 125.632 261.602 125.861C261.985 125.965 262.531 125.725 262.938 125.496C263.541 125.228 264.11 124.838 264.624 124.34C265.601 123.382 266.545 122.038 266.483 120.216C266.46 119.393 266.288 118.57 266.061 117.778C267.288 117.091 268.881 116.716 270.912 117.028C275.262 117.705 276.114 121.33 275.95 122.84C275.785 124.351 274.871 125.194 274.567 125.444C274.262 125.694 274.168 125.788 274.192 125.975C274.231 126.246 274.371 126.236 274.629 126.173C274.989 126.09 276.91 124.944 276.996 122.142C277.121 118.601 274.567 114.706 270.042 114.737L270.045 114.739ZM236.515 129.811C235.078 131.904 233.062 132.696 232.196 132.029C231.266 131.308 231.633 128.227 233.406 125.996C234.484 124.642 235.874 123.392 236.796 122.622C237.007 122.455 237.312 122.205 237.687 121.903C237.749 121.851 237.78 121.83 237.78 121.83C237.851 121.767 237.929 121.715 238.007 121.653C238.655 124.819 238.03 127.611 236.515 129.808V129.811ZM247.012 120.291C246.512 121.926 245.458 126.092 244.817 125.873C244.27 125.686 243.934 122.509 244.708 119.384C245.098 117.812 245.927 115.937 246.419 115.208C247.207 114.031 248.074 113.656 248.277 114.124C248.551 114.739 247.324 119.27 247.012 120.291ZM255.684 125.811C255.473 125.957 255.277 126.05 255.184 125.978C255.113 125.925 255.27 125.728 255.27 125.728C255.27 125.728 256.356 124.176 256.785 123.467C257.035 123.051 257.324 122.561 257.636 122.02C257.636 122.072 257.644 122.124 257.644 122.186C257.634 124.051 256.291 125.311 255.681 125.811H255.684ZM262.37 123.78C262.213 123.634 262.237 123.144 262.76 121.624C262.963 121.03 263.431 120.03 264.245 119.072C264.337 119.435 264.387 119.814 264.393 120.197C264.385 122.54 263.127 123.415 262.37 123.78Z" fill="#C96195" fill-opacity="0.5"/>
<path id="js" d="M652.643 71H613.357C610.4 71 608 73.3996 608 76.3571V115.643C608 118.6 610.4 121 613.357 121H652.643C655.6 121 658 118.6 658 115.643V76.3571C658 73.3996 655.6 71 652.643 71ZM635.21 109.996C635.21 114.862 632.353 117.083 628.19 117.083C624.429 117.083 622.252 115.141 621.136 112.786L624.964 110.475C625.701 111.781 626.371 112.886 627.989 112.886C629.529 112.886 630.511 112.283 630.511 109.929V93.9576H635.21V109.996ZM646.326 117.083C641.962 117.083 639.138 115.007 637.766 112.283L641.594 110.074C642.598 111.714 643.915 112.931 646.225 112.931C648.167 112.931 649.417 111.96 649.417 110.609C649.417 109.002 648.145 108.433 645.991 107.484L644.819 106.982C641.426 105.542 639.183 103.723 639.183 99.8951C639.183 96.3683 641.873 93.6897 646.058 93.6897C649.049 93.6897 651.192 94.7277 652.732 97.4509L649.071 99.7946C648.268 98.3549 647.397 97.7857 646.047 97.7857C644.674 97.7857 643.804 98.6563 643.804 99.7946C643.804 101.201 644.674 101.77 646.694 102.652L647.866 103.154C651.862 104.862 654.105 106.614 654.105 110.542C654.105 114.761 650.779 117.083 646.326 117.083Z" fill="#FFE3A4" fill-opacity="0.5"/>
<path id="html" d="M92 56L96.5443 104.592L116.935 111L137.456 104.592L142 56H92ZM132.13 71.702H108.198L108.732 77.7667H131.596L129.826 95.9855L117.078 99.3002V99.3371H116.935L104.083 95.9855L103.302 86.6797H109.513L109.969 91.3571L116.935 93.1373L123.927 91.3571L124.708 83.721H102.977L101.31 65.846H132.703L132.13 71.702Z" fill="#DC4D25" fill-opacity="0.5"/>
<path id="css" d="M248 248L241.333 289.071L218.073 298L198 289.071L200.042 278.491H208.583L207.75 283.022L219.875 287.978L233.844 283.022L235.802 272.185H201.073L202.74 263.033H237.5L238.594 257.152H203.865L205.562 248H248Z" fill="#254BDD" fill-opacity="0.5"/>
<path id="wp" d="M820.413 162.27L830.645 190.294C823.488 186.827 818.558 179.488 818.558 171C818.558 167.885 819.224 164.942 820.413 162.27ZM854.476 169.921C854.476 167.27 853.528 165.435 852.712 164.004C851.623 162.24 850.605 160.738 850.605 158.974C850.605 156.998 852.097 155.163 854.204 155.163C854.294 155.163 854.385 155.173 854.486 155.183C850.665 151.685 845.585 149.548 840 149.548C832.51 149.548 825.917 153.389 822.077 159.216C822.581 159.236 823.054 159.246 823.458 159.246C825.696 159.246 829.173 158.974 829.173 158.974C830.333 158.903 830.464 160.607 829.315 160.738C829.315 160.738 828.155 160.869 826.865 160.94L834.677 184.165L839.375 170.093L836.038 160.94C834.879 160.869 833.79 160.738 833.79 160.738C832.631 160.667 832.772 158.903 833.921 158.974C833.921 158.974 837.46 159.246 839.567 159.246C841.804 159.246 845.282 158.974 845.282 158.974C846.442 158.903 846.573 160.607 845.423 160.738C845.423 160.738 844.264 160.869 842.974 160.94L850.726 183.994L852.863 176.847C853.77 173.883 854.476 171.756 854.476 169.921ZM840.373 172.875L833.942 191.575C835.867 192.139 837.893 192.452 840 192.452C842.5 192.452 844.889 192.018 847.117 191.232C847.056 191.141 847.006 191.04 846.966 190.94L840.373 172.875ZM858.821 160.708C858.911 161.393 858.962 162.119 858.962 162.915C858.962 165.093 858.558 167.532 857.329 170.597L850.776 189.538C857.157 185.819 861.442 178.913 861.442 171C861.442 167.27 860.494 163.762 858.821 160.708ZM865 171C865 184.79 853.78 196 840 196C826.21 196 815 184.78 815 171C815 157.21 826.21 146 840 146C853.78 146 865 157.21 865 171ZM863.851 171C863.851 157.845 853.145 147.149 840 147.149C826.845 147.149 816.149 157.845 816.149 171C816.149 184.155 826.855 194.851 840 194.851C853.155 194.851 863.851 184.155 863.851 171Z" fill="#30353A" fill-opacity="0.5"/>
<path id="code" d="M456.408 139.984L446.407 183.733C446.024 185.393 444.641 186.35 443.313 185.881C441.985 185.403 441.219 183.674 441.594 182.014L451.595 138.267C451.978 136.608 453.361 135.647 454.689 136.121C456.017 136.595 456.783 138.325 456.408 139.984ZM464.517 147.856L473.268 158.793C474.244 160.013 474.244 161.986 473.268 163.206L464.517 174.143C463.541 175.364 461.962 175.364 460.986 174.143C460.009 172.923 460.009 170.95 460.986 169.729L467.963 160.999L460.986 152.269C460.009 151.049 460.009 149.076 460.986 147.856C461.962 146.635 463.541 146.635 464.517 147.856ZM437.016 152.269L430.035 160.999L437.016 169.729C437.993 170.95 437.993 172.923 437.016 174.143C436.04 175.364 434.461 175.364 433.485 174.143L424.732 163.206C423.756 161.986 423.756 160.013 424.732 158.793L433.485 147.856C434.461 146.635 436.04 146.635 437.016 147.856C437.993 149.076 437.993 151.049 437.016 152.269Z" fill="#756BE9" fill-opacity="0.5"/>
<path id="git" d="M420.122 300.181H412.379C408.473 298.911 399.636 299.241 399.636 309.237C399.636 312.88 401.101 315.44 403.054 316.623C400.603 319.408 399.44 320.722 399.44 322.581C399.44 323.913 399.877 325.141 401.187 325.828C399.794 327.451 399 328.631 399 330.847C399 334.735 401.739 337 408.925 337C415.834 337 419.842 333.801 419.842 328.139C419.842 321.036 415.432 321.298 405.034 320.511L406.346 317.902C409.009 318.819 417.937 319.112 417.937 309.681C417.937 307.417 417.183 305.842 416.473 304.708L420.126 304.365L420.122 300.181ZM413.929 329.471C413.929 333.353 403.686 333.358 403.686 329.765C403.686 328.78 404.2 327.949 404.718 327.157C412.307 327.799 413.929 327.565 413.929 329.471ZM408.967 313.176C403.811 313.176 404.039 304.559 409.084 304.559C413.922 304.559 414.047 313.176 408.967 313.176ZM421.984 325.346V321.459C424.597 321.016 424.645 321.217 424.645 320.127V305.656C424.645 304.627 424.444 304.763 421.984 303.688L422.421 299.702H430.641V320.13C430.641 320.918 430.68 321.016 431.276 321.115L433.301 321.459V325.346H421.984ZM427.106 295.764C424.844 295.764 423.533 294.138 423.533 291.331C423.533 288.524 424.844 287 427.106 287C429.409 287 430.72 288.528 430.72 291.331C430.72 294.134 429.409 295.764 427.106 295.764ZM449 323.437C447.292 324.47 444.791 325.406 442.527 325.406C437.803 325.406 436.017 323.045 436.017 317.48V304.584C436.017 303.927 436.119 304.092 432.92 304.092V299.71C436.414 299.217 437.803 297.046 438.239 291.686H442.012C442.012 299.657 441.881 299.17 442.33 299.17H447.926V304.092H442.012V315.855C442.012 316.693 441.531 322.08 447.927 319.105L449 323.437Z" fill="#E84D31" fill-opacity="0.5"/>
<path id="figma" d="M142 400.097C142 392.864 148.024 387 155.456 387H178.544C185.976 387 192 392.864 192 400.097C192 404.677 189.585 408.708 185.926 411.048C189.585 413.389 192 417.42 192 422C192 429.233 185.976 435.097 178.544 435.097H178.252C174.768 435.097 171.593 433.808 169.204 431.694V443.761C169.204 451.091 163.022 457 155.528 457C148.115 457 142 451.154 142 443.903C142 439.323 144.415 435.293 148.074 432.952C144.415 430.611 142 426.58 142 422C142 417.42 144.415 413.389 148.074 411.048C144.415 408.708 142 404.677 142 400.097ZM164.796 413.194H155.456C150.459 413.194 146.408 417.137 146.408 422C146.408 426.845 150.427 430.777 155.398 430.807C155.417 430.807 155.436 430.807 155.456 430.807H164.796V413.194ZM169.204 422C169.204 426.864 173.255 430.807 178.252 430.807H178.544C183.541 430.807 187.592 426.864 187.592 422C187.592 417.137 183.541 413.194 178.544 413.194H178.252C173.255 413.194 169.204 417.137 169.204 422ZM155.456 435.097C155.436 435.097 155.417 435.097 155.398 435.097C150.427 435.127 146.408 439.058 146.408 443.903C146.408 448.749 150.513 452.71 155.528 452.71C160.625 452.71 164.796 448.686 164.796 443.761V435.097H155.456ZM155.456 391.29C150.459 391.29 146.408 395.233 146.408 400.097C146.408 404.96 150.459 408.903 155.456 408.903H164.796V391.29H155.456ZM169.204 408.903H178.544C183.541 408.903 187.592 404.96 187.592 400.097C187.592 395.233 183.541 391.29 178.544 391.29H169.204V408.903Z" fill="#0AC97F" fill-opacity="0.5"/>
</g>
</svg>
