<svg width="1000" height="500" viewBox="0 0 1000 500" fill="none" xmlns="http://www.w3.org/2000/svg">
<path d="M656.056 347.446C657.686 348.333 659.792 347.757 660.887 346.069C661.982 344.381 661.594 342.153 660.026 341.064L659.922 340.991C658.263 339.92 656.015 340.48 654.882 342.222C654.36 343.085 654.176 344.018 654.303 344.84C649.964 347.294 645.372 348.102 639.729 347.527C635.888 347.144 632.632 345.697 630.026 343.315C627.904 341.351 626.841 338.979 626.954 336.363C627.156 332.505 629.026 329.479 632.464 327.542C634.91 326.141 637.549 325.689 639.076 325.608C639.365 324.747 639.892 323.318 640.348 322.328C628.755 322.843 624.109 331.203 623.844 336.488C623.656 340.438 625.971 344.578 629.838 347.265C630.883 347.991 632.005 348.607 633.24 349.058C640.885 352.329 648.86 351.668 656.056 347.446ZM669.994 347.012C669.427 339.353 665.45 332.59 658.762 327.942L657.926 327.361C658.144 326.044 657.61 324.694 656.512 323.931L656.408 323.859C654.75 322.788 652.502 323.347 651.368 325.09C650.273 326.778 650.661 329.006 652.229 330.095L652.333 330.168C653.521 330.911 655.049 330.831 656.194 330.075L657.135 330.729C661.106 333.488 664.026 337.314 665.778 342.041C667.128 345.673 667.365 349.347 666.42 352.934C665.702 355.863 664.083 358.084 661.803 359.357C658.313 361.257 654.748 361.147 651.508 358.895C649.418 357.443 647.891 355.403 647.191 354.181C646.234 354.333 644.577 354.487 643.463 354.529C644.945 357.191 646.823 359.394 649.018 360.919C654.034 364.405 659.77 364.066 663.208 362.128C666.942 359.989 670.662 354.413 669.994 347.012ZM638.059 336.327C636.963 338.015 637.352 340.243 638.92 341.332L639.024 341.405C640.682 342.475 642.93 341.916 644.064 340.174C645.159 338.486 644.77 336.257 643.203 335.168L643.098 335.095C642.994 335.023 642.837 334.914 642.694 334.896C643.153 329.665 645.096 324.975 648.468 320.789C650.972 317.632 654.006 315.496 657.479 314.401C660.41 313.418 664.025 314.46 666.049 315.784C671.663 319.523 668.966 328.422 667.095 331.448C667.659 332.085 668.541 333.269 669.134 334.089C674.703 324.737 672.691 316.483 667.675 312.997C662.973 309.73 656.15 310.294 650.754 314.379C643.455 319.754 640.318 327.613 639.534 334.985C639.005 335.188 638.427 335.685 638.059 336.327Z" fill="#764ABC" fill-opacity="0.5"/>
<path d="M435.181 47.3191L444.167 56.9915L443.257 57.8371L435.095 49.0514L428.244 55.4162L435.92 63.6779L435.01 64.5236L427.334 56.2618L419.813 63.2497L428.069 72.1361L427.159 72.9818L418.079 63.2087L435.181 47.3191ZM444.972 57.8579L445.927 58.8856L442.637 70.4276L454.483 68.0945L469.919 65.5496L442.39 71.7463L438.579 85.2737L437.587 84.2058L441.056 71.8963L428.507 74.4327L427.533 73.3848L441.341 70.6179L444.972 57.8579ZM455.127 70.6127L456.037 69.767L466.278 80.7895L465.368 81.6351L460.65 76.5571L444.457 91.6011L443.634 90.7144L459.826 75.6705L455.127 70.6127ZM423.939 35.2186L424.968 36.3269L412.091 76.766L416.197 61.1836L423.506 37.3473L407.66 51.9948L406.836 51.1082L423.939 35.2186ZM450.277 95.4888C450.109 95.3077 450.149 95.0174 450.364 94.8179C450.578 94.6184 450.871 94.5999 451.039 94.781C451.209 94.9643 451.167 95.2524 450.953 95.4519C450.738 95.6515 450.447 95.6721 450.277 95.4888ZM452.089 95.429L452.53 95.9034C452.231 96.1925 452.201 96.5702 452.458 96.8462C452.744 97.1546 453.126 97.125 453.538 96.7425L456.146 94.3198L456.594 94.8028L453.984 97.228C453.243 97.9168 452.479 97.9512 451.922 97.3517C451.399 96.7888 451.455 96.018 452.089 95.429ZM454.484 97.9406L454.929 98.4193C454.617 98.7857 454.663 99.2813 455.05 99.6975C455.41 100.086 455.912 100.149 456.24 99.8454C456.521 99.5841 456.521 99.2462 456.254 98.7274L455.996 98.2195C455.629 97.5117 455.713 96.9558 456.255 96.4523C456.912 95.8418 457.77 95.8885 458.401 96.5678C458.988 97.1996 458.98 98.0673 458.384 98.6725L457.948 98.2024C458.246 97.8412 458.225 97.3939 457.889 97.0316C457.534 96.6499 457.08 96.5974 456.748 96.9061C456.485 97.1508 456.486 97.4548 456.75 97.9648L456.969 98.4003C457.386 99.2025 457.323 99.7506 456.769 100.266C456.063 100.922 455.192 100.871 454.507 100.134C453.866 99.4435 453.857 98.5879 454.484 97.9406Z" fill="#898888"/>
<path d="M801.243 280.184C800.716 280.385 800.196 280.595 799.684 280.814C799.475 280.448 799.257 280.088 799.04 279.728C795.502 273.97 791.348 270.512 788.186 270.975C785.148 271.431 783.193 275.53 782.846 281.5C782.808 282.087 782.793 282.685 782.792 283.271C782.402 283.229 782.004 283.195 781.615 283.17C775.297 282.772 770.713 284.326 769.909 287.426C769.133 290.395 771.92 294.655 776.917 298.631C777.414 299.025 777.91 299.404 778.428 299.779C778.096 300.346 777.787 300.922 777.513 301.481C775.003 306.497 774.387 311.418 776.634 313.931C778.955 316.526 784.254 316.474 789.707 314.441C790.147 314.273 790.585 314.105 791.017 313.914C791.355 314.51 791.698 315.086 792.065 315.671C795.43 320.972 799.3 324.098 802.331 323.648C805.457 323.188 807.571 318.902 807.909 312.806C807.933 312.32 807.95 311.826 807.952 311.314C808.592 311.386 809.232 311.428 809.864 311.461C815.718 311.736 819.906 310.221 820.682 307.267C821.487 304.211 818.608 299.704 813.493 295.654C813.1 295.347 812.693 295.037 812.27 294.726C812.437 294.443 812.587 294.158 812.738 293.873C815.518 288.528 816.261 283.236 813.904 280.599C811.649 278.078 806.594 278.198 801.243 280.184ZM785.078 281.929C785.375 276.812 786.956 273.497 788.783 273.226C790.735 272.932 794.125 275.77 797.184 280.744C797.387 281.073 797.581 281.392 797.761 281.725C795.773 282.755 793.868 283.92 792.074 285.225C789.744 284.524 787.385 283.968 785.022 283.581C785.03 283.019 785.047 282.481 785.078 281.929ZM792.666 307.363C793.685 307.755 794.71 308.14 795.743 308.489C794.481 309.363 793.166 310.164 791.807 310.886C791.057 309.401 790.348 307.804 789.684 306.123C790.673 306.555 791.662 306.973 792.666 307.363ZM781.51 299.328C782.32 298.125 783.241 296.912 784.25 295.711C784.481 296.746 784.735 297.792 785.018 298.827C785.294 299.853 785.592 300.889 785.919 301.914C784.351 301.085 782.88 300.215 781.51 299.328ZM788.631 303.276C788.084 301.699 787.605 300.107 787.168 298.505C786.732 296.904 786.369 295.297 786.05 293.681C787.06 292.613 788.129 291.567 789.265 290.551C790.4 289.536 791.566 288.584 792.732 287.705C794.288 288.2 795.838 288.745 797.38 289.343C798.923 289.939 800.452 290.593 801.966 291.29C802.504 292.875 802.992 294.475 803.428 296.091C803.865 297.692 804.235 299.292 804.569 300.911C803.566 301.971 802.475 303.023 801.332 304.044C800.189 305.066 799.045 306.015 797.909 306.897C796.331 306.407 794.766 305.86 793.216 305.253C791.667 304.648 790.145 303.989 788.631 303.276ZM805.586 295.778C805.303 294.714 804.99 293.662 804.662 292.607C806.207 293.397 807.708 294.254 809.189 295.192C808.32 296.492 807.379 297.739 806.362 298.916C806.13 297.867 805.862 296.819 805.586 295.778ZM800.943 288.477C799.946 288.051 798.942 287.632 797.938 287.241C796.949 286.853 795.953 286.487 794.95 286.141C796.271 285.26 797.592 284.481 798.886 283.818C799.652 285.349 800.331 286.898 800.943 288.477ZM785.069 285.83C786.681 286.095 788.294 286.449 789.886 286.882C788.379 288.096 786.93 289.392 785.556 290.755C785.309 289.043 785.151 287.388 785.069 285.83ZM772.064 288.283C772.558 286.374 776.315 285.11 781.765 285.446C782.111 285.467 782.47 285.503 782.838 285.534C782.953 287.932 783.237 290.344 783.666 292.744C782.17 294.382 780.8 296.131 779.548 297.984C779.074 297.644 778.607 297.283 778.14 296.922C773.856 293.509 771.591 290.069 772.064 288.283ZM789.892 311.806C789.497 311.979 789.102 312.138 788.699 312.288C786.65 313.118 784.1 313.811 781.793 313.794C780.536 313.87 779.237 313.414 778.2 312.531C776.838 311.008 777.397 307.005 779.533 302.713C779.799 302.176 780.088 301.649 780.384 301.13C782.492 302.492 784.674 303.73 786.898 304.825C787.754 307.189 788.757 309.526 789.892 311.806ZM805.671 312.367C805.592 314.698 805.095 316.939 804.191 318.975C803.778 320.139 802.883 321.013 801.718 321.382C799.876 321.651 796.769 319.145 793.891 314.607C793.555 314.069 793.225 313.526 792.917 312.977C794.906 311.918 796.796 310.721 798.589 309.372C800.941 310.069 803.328 310.613 805.707 311.002C805.705 311.467 805.695 311.926 805.671 312.367ZM805.646 308.751C804.085 308.5 802.435 308.149 800.74 307.704C801.468 307.112 802.204 306.485 802.932 305.833C803.682 305.163 804.401 304.488 805.092 303.795C805.367 305.452 805.547 307.102 805.646 308.751ZM817.392 302.738C818.234 303.811 818.645 305.15 818.519 306.416C818.047 308.216 814.685 309.424 809.685 309.195C809.112 309.169 808.516 309.118 807.906 309.065C807.762 306.664 807.457 304.256 806.99 301.859C808.515 300.211 809.915 298.435 811.173 296.546C811.551 296.822 811.921 297.104 812.278 297.385C814.24 298.863 815.972 300.683 817.392 302.738ZM810.719 292.611C810.582 292.867 810.445 293.125 810.293 293.38C808.162 292.023 805.952 290.81 803.691 289.733C802.872 287.411 801.899 285.137 800.794 282.906C801.284 282.692 801.768 282.499 802.236 282.32C806.818 280.617 810.969 280.468 812.323 281.982C813.782 283.613 813.123 287.989 810.719 292.611ZM798.706 301.108C800.548 299.461 800.515 296.421 798.632 294.316C796.75 292.212 793.733 291.841 791.891 293.488C790.049 295.136 790.082 298.176 791.964 300.28C793.847 302.385 796.864 302.756 798.706 301.108Z" fill="#5ED3F3" fill-opacity="0.5"/>
<path d="M519.092 397.021C518.404 395.172 516.722 394.636 514.438 395.487L510.236 397.052L512.456 403.011L516 401.691C518.731 400.664 519.828 398.997 519.092 397.021ZM533.992 390.251C532.236 387.96 530.938 384.832 530.116 382.345C529.258 379.759 526.4 378.155 523.732 379.149L496.32 389.361C493.644 390.359 492.544 393.446 493.583 395.956C494.58 398.377 495.653 401.59 495.825 404.47C495.991 407.363 495.26 409.503 493.129 410.535L494.017 412.921C496.297 412.31 498.258 413.447 500.025 415.743C501.78 418.034 503.079 421.162 503.901 423.648C504.759 426.234 507.617 427.839 510.285 426.845L537.688 416.635C540.364 415.638 541.465 412.551 540.425 410.041C539.428 407.62 538.355 404.407 538.184 401.527C538.017 398.634 538.748 396.494 540.871 395.465L539.983 393.079C537.712 393.687 535.751 392.55 533.992 390.251ZM521.732 412.593L513.57 415.633L506.14 395.691L514.261 392.665C517.87 391.32 520.968 392.397 522.09 395.409C522.879 397.526 521.992 400.011 520.079 401.095L520.119 401.204C523 400.474 525.576 401.707 526.564 404.359C527.877 407.882 526.059 410.98 521.732 412.593ZM517.509 403.806L513.332 405.362L515.776 411.924L520.137 410.299C522.988 409.237 524.07 407.528 523.265 405.369C522.464 403.218 520.502 402.691 517.509 403.806Z" fill="#7910F2" fill-opacity="0.5"/>
<path d="M778.162 436.312C778.102 436.341 778.051 436.361 778.162 436.312V436.312ZM798.521 443.13C797.381 442.047 795.925 441.33 794.265 441.031C794.784 439.816 795.183 438.701 795.686 438.058C796.27 437.306 796.582 436.828 797.436 436.087C798.289 435.346 799.743 434.528 799.817 434.44C799.89 434.351 800.21 433.865 799.486 433.164C798.763 432.463 797.946 432.063 797.63 432.251C797.056 432.598 796.497 432.985 795.96 433.41C794.992 434.17 790.664 436.067 788.348 436.999C788.708 436.12 789.035 435.354 789.42 434.857C790.005 434.106 790.317 433.628 791.17 432.886C792.024 432.146 793.478 431.328 793.551 431.239C793.624 431.15 793.945 430.666 793.221 429.965C792.498 429.265 791.681 428.864 791.364 429.051C791.047 429.238 790.394 429.767 789.695 430.209C788.995 430.651 782.233 434.229 780.472 435.158C779.574 435.627 778.84 435.993 778.334 436.231C778.254 436.27 778.201 436.291 778.161 436.311C778.214 436.289 778.262 436.262 778.247 436.277C777.814 436.484 777.568 436.595 777.568 436.595L777.561 436.603C777.235 436.753 776.92 436.87 776.869 436.822C776.835 436.79 777.363 436.085 778.312 435.334C780.312 433.758 783.637 431.513 783.725 431.41C783.769 431.351 784.36 430.978 784.077 430.208C783.798 429.469 783.218 429.708 783.172 429.664C783.127 429.622 782.949 429.741 782.949 429.741C782.949 429.741 786.561 427.079 784.889 425.493C783.846 424.504 780.947 424.654 778.922 425.362C778.166 425.262 776.53 425.045 774.8 424.826C774.136 424.742 773.454 424.655 772.809 424.575C772.817 424.511 772.83 424.452 772.838 424.386C773.546 419.575 771.736 413.982 775.571 410.256C776.968 408.896 780.856 405.535 791.905 407.458C800.958 409.038 804.44 414.263 803.069 417.241C801.122 421.495 791.979 424.179 785.392 419.569C782.885 417.809 782.804 415.579 782.917 414.882C783.039 414.151 783.015 414.085 782.823 414.061C782.506 414.02 782.253 414.525 782.099 414.824C781.703 415.583 781.408 417.313 782.113 418.986C782.736 420.453 785.071 423.155 789.715 424.501C794.923 426.023 802.401 423.597 805.579 418.645C808.808 413.611 804.832 407.185 797.568 404.804C793.241 403.385 787.904 402.544 782.835 403.234C776.807 404.064 773.52 406.646 772.511 408.072C768.936 413.136 770.786 420.402 770.591 424.295C770.437 424.277 770.294 424.257 770.158 424.242C768.653 423.979 762.823 423.1 759.493 424.853C755.721 426.844 754.885 430.041 755.371 431.048C756.909 434.172 760.832 434.893 764.594 433.536C768.357 432.18 771.409 428.644 772.27 426.532C772.286 426.505 772.289 426.478 772.304 426.45C772.721 426.488 773.145 426.529 773.567 426.572C774.389 426.647 775.171 426.743 775.853 426.829C774.852 427.43 773.756 428.257 772.323 429.598C770.644 431.163 769.117 433.807 768.984 435.287C768.928 435.937 769.277 436.283 769.498 436.493C770.28 437.235 771.449 436.706 772.814 436.049C774.486 435.252 776.293 434.196 776.293 434.196C776.293 434.196 772.02 437.636 773.477 439.017C774.009 439.522 775.41 439.113 776.092 438.871L776.085 438.878C776.085 438.878 776.125 438.858 776.211 438.825C776.375 438.766 776.468 438.724 776.468 438.724L776.489 438.702C777.171 438.415 778.709 437.735 781.18 436.547C784.378 435.014 788.102 432.847 788.102 432.847C787.561 433.587 787.06 434.349 786.603 435.13C786.082 435.999 785.671 437.102 785.213 438.117C784.625 438.306 784.28 438.409 784.28 438.409C784.275 438.415 784.271 438.423 784.271 438.43C783.814 438.571 783.313 438.713 782.814 438.843C780.999 439.303 778.89 439.801 778.418 440.072C777.859 440.388 777.578 440.753 777.596 441.257C777.601 441.636 777.913 441.989 778.305 442.29C779.014 442.848 779.675 443.072 780.025 443.144C780.617 443.337 781.258 443.432 781.929 443.429C783.297 443.406 784.674 442.817 785.881 441.464C786.546 440.717 787.059 439.825 787.488 438.941C787.665 438.879 787.855 438.815 788.04 438.746C791.233 437.625 794.373 436.05 794.373 436.05C793.833 436.79 793.333 437.553 792.876 438.334C792.431 439.075 792.059 439.999 791.679 440.888C789.543 441.03 787.638 441.734 786.586 442.388C784.64 443.601 784.281 444.638 784.741 445.39C784.948 445.729 785.509 445.931 785.962 446.045C786.584 446.265 787.265 446.374 787.981 446.366C789.349 446.343 790.959 446.018 792.167 444.653C792.717 444.04 793.159 443.324 793.539 442.593C794.902 442.939 796.316 443.763 797.575 445.387C800.265 448.872 798.389 452.088 797.231 453.071C796.072 454.054 794.828 454.037 794.436 454.009C794.042 453.981 793.91 453.984 793.798 454.136C793.64 454.36 793.749 454.449 793.979 454.581C794.297 454.768 796.48 455.258 798.47 453.284C800.998 450.801 801.825 446.217 798.52 443.126L798.521 443.13ZM763.82 430.994C761.337 431.524 759.329 430.711 759.16 429.631C758.981 428.468 761.367 426.485 764.189 426.086C765.903 425.846 767.772 425.895 768.971 425.971C769.239 425.995 769.632 426.023 770.112 426.062C770.193 426.067 770.23 426.073 770.23 426.073C770.324 426.076 770.417 426.092 770.516 426.101C768.808 428.844 766.433 430.44 763.822 430.992L763.82 430.994ZM777.987 431.309C776.5 432.152 772.868 434.449 772.554 433.849C772.285 433.337 774.228 430.801 776.94 429.066C778.304 428.193 780.196 427.403 781.055 427.213C782.436 426.901 783.324 427.226 783.149 427.705C782.924 428.34 778.916 430.783 777.987 431.309ZM780.482 441.282C780.228 441.243 780.022 441.175 780.004 441.059C779.989 440.972 780.238 440.937 780.238 440.937C780.238 440.937 782.094 440.558 782.893 440.339C783.361 440.209 783.908 440.052 784.507 439.874C784.471 439.912 784.441 439.955 784.398 440C783.108 441.347 781.266 441.337 780.479 441.28L780.482 441.282ZM786.731 444.409C786.717 444.195 787.072 443.856 788.497 443.113C789.053 442.821 790.081 442.418 791.331 442.283C791.148 442.609 790.923 442.919 790.664 443.201C789.046 444.896 787.531 444.665 786.731 444.409Z" fill="#C96195" fill-opacity="0.5"/>
<path d="M651.784 104.853L618.534 125.777C616.031 127.352 615.278 130.661 616.853 133.164L637.777 166.414C639.352 168.917 642.661 169.67 645.164 168.095L678.414 147.171C680.917 145.597 681.67 142.287 680.095 139.784L659.172 106.534C657.596 104.031 654.287 103.278 651.784 104.853ZM657.799 147.143C660.391 151.261 659.155 154.663 655.632 156.88C652.449 158.883 649.572 158.399 647.373 157L649.382 153.005C650.702 153.718 651.857 154.297 653.227 153.435C654.53 152.615 655.04 151.581 653.786 149.589L645.28 136.071L649.257 133.569L657.799 147.143ZM670.982 147.221C667.288 149.545 663.792 149.292 661.18 147.717L663.244 143.809C664.967 144.662 666.73 144.991 668.685 143.76C670.328 142.726 670.869 141.239 670.15 140.095C669.294 138.735 667.914 138.931 665.586 139.275L664.326 139.474C660.688 140.063 657.821 139.718 655.782 136.478C653.903 133.493 654.754 129.793 658.296 127.564C660.827 125.971 663.194 125.708 665.947 127.193L664.097 131.126C662.651 130.336 661.61 130.318 660.468 131.037C659.306 131.768 659.033 132.968 659.639 133.932C660.388 135.122 661.428 135.14 663.607 134.811L664.867 134.611C669.158 133.929 671.99 134.217 674.082 137.542C676.329 141.112 674.751 144.849 670.982 147.221Z" fill="#FFE3A4" fill-opacity="0.7"/>
<path d="M152.249 90L117.832 124.602L125.965 144.368L144.026 156.029L184.262 128.408L152.249 90ZM165.881 130.88L150.558 112.496L146.241 116.789L160.88 134.352L145.752 144.657L135.044 136.987L135.015 137.011L134.924 136.901L129.27 124.883L135.918 118.325L139.895 123.096L136.594 126.441L139.686 132.932L145.53 137.163L151.896 132.874L137.983 116.181L150.646 103.456L170.746 127.57L165.881 130.88Z" fill="#DC4D25" fill-opacity="0.5"/>
<path d="M293.159 343.023L312.3 379.968L298.954 401.006L277.516 405.809L272.846 396.099L279.702 391.005L281.735 395.139L294.424 391.887L302.681 379.578L297.79 369.711L269.913 390.422L265.793 382.081L293.696 361.352L291.067 355.979L263.189 376.69L259.093 368.331L293.159 343.023Z" fill="#254BDD" fill-opacity="0.5"/>
<path d="M818.992 161.737L813.352 191.032C808.997 184.378 808.545 175.548 812.911 168.269C814.513 165.598 816.598 163.417 818.992 161.737ZM844.268 185.819C845.631 183.546 845.762 181.485 845.798 179.838C845.772 177.765 845.672 175.953 846.579 174.44C847.595 172.746 849.819 171.94 851.626 173.023C851.703 173.07 851.776 173.125 851.857 173.186C850.38 168.22 847.122 163.775 842.333 160.902C835.91 157.049 828.28 156.952 821.99 159.974C822.412 160.25 822.812 160.502 823.159 160.71C825.078 161.861 828.2 163.416 828.2 163.416C829.231 163.952 828.467 165.481 827.414 165.002C827.414 165.002 826.352 164.518 825.209 163.915L819.962 187.85L831.229 178.199L833.075 168.633C832.118 167.976 831.252 167.304 831.252 167.304C830.294 166.647 831.322 165.207 832.271 165.859C832.271 165.859 835.166 167.912 836.973 168.996C838.892 170.147 842.014 171.702 842.014 171.702C843.045 172.238 842.281 173.767 841.228 173.288C841.228 173.288 840.166 172.804 839.024 172.201L833.813 195.959L839.322 190.929C841.624 188.854 843.324 187.393 844.268 185.819ZM830.654 181.098L815.52 193.827C816.881 195.301 818.457 196.611 820.264 197.695C822.408 198.981 824.68 199.838 826.995 200.31C826.99 200.2 826.999 200.088 827.016 199.981L830.654 181.098ZM852.733 180.153C852.458 180.787 852.128 181.436 851.718 182.119C850.598 183.986 848.997 185.87 846.367 187.866L831.004 200.739C838.389 200.832 845.616 197.114 849.686 190.328C851.605 187.129 852.597 183.633 852.733 180.153ZM852.738 192.158C845.644 203.984 830.256 207.826 818.439 200.738C806.613 193.644 802.771 178.256 809.859 166.439C816.953 154.613 832.332 150.766 844.158 157.859C855.975 164.947 859.831 180.332 852.738 192.158ZM851.752 191.567C858.519 180.286 854.84 165.606 843.567 158.845C832.286 152.078 817.611 155.749 810.845 167.03C804.078 178.311 807.758 192.991 819.03 199.752C830.311 206.519 844.986 202.848 851.752 191.567Z" fill="#30353A" fill-opacity="0.5"/>
<path d="M281.444 149.65L299.369 190.792C300.047 192.355 299.502 193.946 298.155 194.358C296.802 194.761 295.159 193.825 294.476 192.266L276.551 151.126C275.875 149.563 276.417 147.969 277.767 147.562C279.117 147.155 280.761 148.092 281.444 149.65ZM292.643 151.17L306.178 154.776C307.687 155.178 308.859 156.766 308.798 158.327L308.249 172.323C308.188 173.885 306.918 174.823 305.407 174.42C303.897 174.018 302.726 172.43 302.787 170.868L303.218 159.701L292.421 156.818C290.911 156.416 289.739 154.828 289.801 153.267C289.862 151.705 291.132 150.767 292.643 151.17ZM273.133 171.049L272.698 182.218L283.498 185.099C285.009 185.501 286.181 187.089 286.119 188.65C286.058 190.212 284.788 191.15 283.278 190.747L269.741 187.142C268.231 186.74 267.06 185.152 267.121 183.591L267.671 169.594C267.732 168.032 269.002 167.094 270.513 167.497C272.023 167.899 273.194 169.487 273.133 171.049Z" fill="#756BE9" fill-opacity="0.5"/>
<path d="M433.576 252.907L426.848 249.075C424.082 246.038 416.24 241.951 411.293 250.637C409.49 253.803 409.496 256.753 410.607 258.747C407.099 259.954 405.438 260.52 404.518 262.136C403.859 263.293 403.631 264.576 404.43 265.822C402.416 266.543 401.142 267.175 400.045 269.101C398.121 272.479 399.38 275.803 405.624 279.359C411.628 282.779 416.694 281.982 419.496 277.062C423.011 270.89 419.05 268.935 410.404 263.105L412.835 261.488C414.695 263.602 422.308 268.276 426.976 260.081C428.096 258.113 428.22 256.372 428.165 255.035L431.509 256.545L433.576 252.907ZM413.699 275.293C411.777 278.667 402.874 273.602 404.653 270.48C405.14 269.624 405.998 269.156 406.84 268.724C413.117 273.038 414.642 273.637 413.699 275.293ZM417.452 258.678C412.971 256.126 417.434 248.752 421.818 251.248C426.022 253.643 421.866 261.192 417.452 258.678ZM422.739 275.696L424.663 272.318C427.153 273.226 427.095 273.425 427.635 272.477L434.797 259.903C435.306 259.009 435.064 259.028 433.458 256.876L435.811 253.629L442.953 257.697L432.843 275.448C432.453 276.132 432.439 276.237 432.908 276.618L434.497 277.919L432.573 281.296L422.739 275.696ZM441.831 252.525C439.865 251.406 439.531 249.344 440.92 246.905C442.309 244.466 444.202 243.79 446.168 244.91C448.169 246.05 448.552 248.026 447.165 250.462C445.778 252.898 443.832 253.665 441.831 252.525ZM447.16 287.407C445.164 287.46 442.528 287.035 440.561 285.915C436.456 283.577 436.072 280.641 438.826 275.806L445.209 264.6C445.534 264.029 445.541 264.223 442.761 262.639L444.93 258.832C448.21 260.132 450.491 258.933 453.523 254.492L456.801 256.359C452.856 263.285 452.984 262.797 453.374 263.02L458.236 265.789L455.8 270.066L450.662 267.139L444.84 277.36C444.425 278.089 441.341 282.532 448.371 283.112L447.16 287.407Z" fill="#E84D31" fill-opacity="0.5"/>
<path d="M95.7923 346.129C92.0411 339.944 94.1506 331.806 100.505 327.952L120.245 315.978C126.6 312.124 134.792 314.014 138.543 320.198C140.918 324.114 140.944 328.813 139.029 332.711C143.371 332.815 147.527 335.009 149.902 338.925C153.653 345.11 151.544 353.247 145.189 357.102L144.939 357.253C141.961 359.06 138.577 359.605 135.439 359.036L141.697 369.353C145.498 375.621 143.277 383.879 136.869 387.765C130.531 391.61 122.271 389.783 118.511 383.583C116.135 379.667 116.11 374.969 118.025 371.07C113.682 370.966 109.527 368.772 107.151 364.856C104.776 360.94 104.751 356.241 106.665 352.342C102.323 352.239 98.1675 350.045 95.7923 346.129ZM122.075 345.504L114.09 350.348C109.817 352.94 108.398 358.412 110.92 362.57C113.433 366.712 118.908 367.99 123.174 365.438C123.191 365.428 123.207 365.418 123.224 365.408L131.21 360.564L122.075 345.504ZM130.411 350.748C132.934 354.906 138.442 356.177 142.715 353.585L142.964 353.434C147.237 350.842 148.656 345.37 146.133 341.211C143.611 337.053 138.102 335.783 133.83 338.375L133.58 338.526C129.308 341.117 127.889 346.59 130.411 350.748ZM125.449 369.076C125.432 369.086 125.415 369.096 125.399 369.106C121.164 371.709 119.767 377.155 122.279 381.297C124.793 385.441 130.357 386.698 134.645 384.097C139.003 381.454 140.482 375.85 137.928 371.639L133.434 364.232L125.449 369.076ZM102.73 331.62C98.4574 334.212 97.0386 339.684 99.5611 343.843C102.083 348.001 107.592 349.271 111.864 346.679L119.85 341.836L110.716 326.776L102.73 331.62ZM123.619 339.55L131.605 334.706C135.877 332.114 137.296 326.642 134.774 322.484C132.251 318.325 126.743 317.055 122.47 319.646L114.485 324.49L123.619 339.55Z" fill="#0AC97F" fill-opacity="0.5"/>
</svg>
